NotoSansDisplay-Condensed.ufo
<glyph name="uni0191" format="2">
  <advance width="469"/>
  <unicode hex="0191"/>
  <anchor x="128" y="0" name="bottom"/>
  <anchor x="321" y="714" name="top"/>
  <anchor x="458" y="714" name="topright"/>
  <outline>
    <contour>
      <point x="128" y="-14" type="curve" smooth="yes"/>
      <point x="211" y="-14"/>
      <point x="273" y="44"/>
      <point x="273" y="168" type="curve" smooth="yes"/>
      <point x="273" y="335" type="line"/>
      <point x="434" y="335" type="line"/>
      <point x="434" y="411" type="line"/>
      <point x="273" y="411" type="line"/>
      <point x="273" y="639" type="line"/>
      <point x="446" y="639" type="line"/>
      <point x="446" y="714" type="line"/>
      <point x="188" y="714" type="line"/>
      <point x="188" y="164" type="line" smooth="yes"/>
      <point x="188" y="101"/>
      <point x="166" y="64"/>
      <point x="126" y="64" type="curve" smooth="yes"/>
      <point x="88" y="64"/>
      <point x="70" y="87"/>
      <point x="70" y="124" type="curve" smooth="yes"/>
      <point x="70" y="134"/>
      <point x="72" y="144"/>
      <point x="74" y="154" type="curve"/>
      <point x="5" y="174" type="line"/>
      <point x="0" y="160"/>
      <point x="-4" y="143"/>
      <point x="-4" y="118" type="curve" smooth="yes"/>
      <point x="-4" y="40"/>
      <point x="45" y="-14"/>
    </contour>
  </outline>
</glyph>
<glyph name="florin" format="2">
  <advance width="339"/>
  <unicode hex="0192"/>
  <anchor x="114" y="0" name="bottom"/>
  <anchor x="273" y="765" name="top"/>
  <anchor x="352" y="765" name="topright"/>
  <outline>
    <contour>
      <point x="110" y="-16" type="curve" smooth="yes"/>
      <point x="204" y="-16"/>
      <point x="243" y="46"/>
      <point x="243" y="139" type="curve" smooth="yes"/>
      <point x="243" y="469" type="line"/>
      <point x="326" y="469" type="line"/>
      <point x="326" y="537" type="line"/>
      <point x="243" y="537" type="line"/>
      <point x="243" y="574" type="line"/>
      <point x="244" y="665"/>
      <point x="255" y="694"/>
      <point x="292" y="694" type="curve"/>
      <point x="307" y="694"/>
      <point x="322" y="690"/>
      <point x="340" y="684" type="curve"/>
      <point x="361" y="749" type="line"/>
      <point x="333" y="760"/>
      <point x="310" y="765"/>
      <point x="281" y="765" type="curve" smooth="yes"/>
      <point x="189" y="765"/>
      <point x="162" y="695"/>
      <point x="162" y="571" type="curve" smooth="yes"/>
      <point x="162" y="540" type="line"/>
      <point x="99" y="512" type="line"/>
      <point x="99" y="469" type="line"/>
      <point x="162" y="469" type="line"/>
      <point x="162" y="139" type="line" smooth="yes"/>
      <point x="162" y="90"/>
      <point x="145" y="55"/>
      <point x="107" y="55" type="curve" smooth="yes"/>
      <point x="79" y="55"/>
      <point x="61" y="73"/>
      <point x="61" y="111" type="curve" smooth="yes"/>
      <point x="61" y="123"/>
      <point x="62" y="133"/>
      <point x="64" y="140" type="curve"/>
      <point x="-5" y="154" type="line"/>
      <point x="-8" y="143"/>
      <point x="-11" y="126"/>
      <point x="-11" y="107" type="curve" smooth="yes"/>
      <point x="-11" y="31"/>
      <point x="30" y="-16"/>
    </contour>
  </outline>
</glyph>
<glyph name="uni023B" format="2">
  <advance width="446"/>
  <unicode hex="023B"/>
  <anchor x="259" y="-75" name="bottom"/>
  <anchor x="269" y="760" name="top"/>
  <anchor x="415" y="725" name="topright"/>
  <outline>
    <contour>
      <point x="369" y="760" type="line"/>
      <point x="323" y="760" type="line"/>
      <point x="201" y="-75" type="line"/>
      <point x="247" y="-75" type="line"/>
    </contour>
    <component base="C"/>
  </outline>
</glyph>
<glyph name="uni023C" format="2">
  <advance width="347"/>
  <unicode hex="023C"/>
  <anchor x="212" y="-208" name="bottom"/>
  <anchor x="203" y="760" name="top"/>
  <anchor x="311" y="537" name="topright"/>
  <outline>
    <contour>
      <point x="305" y="760" type="line"/>
      <point x="259" y="760" type="line"/>
      <point x="125" y="-208" type="line"/>
      <point x="171" y="-208" type="line"/>
    </contour>
    <component base="c"/>
  </outline>
</glyph>
<glyph name="uni0289" format="2">
  <advance width="446"/>
  <unicode hex="0289"/>
  <anchor x="214" y="0" name="bottom"/>
  <anchor x="224" y="537" name="top"/>
  <anchor x="405" y="537" name="topright"/>
  <outline>
    <contour>
      <point x="4" y="255" type="line"/>
      <point x="441" y="255" type="line"/>
      <point x="441" y="317" type="line"/>
      <point x="4" y="317" type="line"/>
    </contour>
    <component base="u"/>
  </outline>
</glyph>
<glyph name="uni02FD" format="2">
  <advance width="324"/>
  <unicode hex="02FD"/>
  <outline>
    <contour>
      <point x="284" y="-195" type="line"/>
      <point x="284" y="-46" type="line"/>
      <point x="238" y="-46" type="line"/>
      <point x="238" y="-148" type="line"/>
      <point x="86" y="-148" type="line"/>
      <point x="86" y="-46" type="line"/>
      <point x="40" y="-46" type="line"/>
      <point x="40" y="-195" type="line"/>
    </contour>
  </outline>
</glyph>
<glyph name="overlinecmb" format="2">
  <unicode hex="0305"/>
  <anchor x="0" y="637" name="_top"/>
  <anchor x="0" y="838" name="top"/>
  <outline>
    <contour>
      <point x="-143" y="838" type="line"/>
      <point x="-143" y="770" type="line"/>
      <point x="144" y="770" type="line"/>
      <point x="144" y="838" type="line"/>
    </contour>
  </outline>
</glyph>
<glyph name="arrowdoublerightbelowcomb" format="2">
  <unicode hex="0362"/>
  <anchor x="0" y="6" name="_bottom"/>
  <anchor x="2" y="-210" name="bottom"/>
  <outline>
    <contour>
      <point x="-268" y="-103" type="line"/>
      <point x="-268" y="-151" type="line"/>
      <point x="180" y="-151" type="line"/>
      <point x="180" y="-210" type="line"/>
      <point x="267" y="-128" type="line"/>
      <point x="180" y="-44" type="line"/>
      <point x="180" y="-103" type="line"/>
    </contour>
  </outline>
</glyph>
<glyph name="heta" format="2">
  <advance width="286"/>
  <unicode hex="0371"/>
  <anchor x="143" y="0" name="bottom"/>
  <anchor x="143" y="537" name="top"/>
  <outline>
    <contour>
      <point x="144" y="537" type="line"/>
      <point x="63" y="537" type="line"/>
      <point x="63" y="0" type="line"/>
      <point x="144" y="0" type="line"/>
      <point x="144" y="244" type="line"/>
      <point x="267" y="244" type="line"/>
      <point x="267" y="314" type="line"/>
      <point x="144" y="314" type="line"/>
    </contour>
  </outline>
</glyph>
<glyph name="uni0374" format="2">
  <advance width="193"/>
  <unicode hex="0374"/>
  <outline>
    <contour>
      <point x="26" y="566" type="curve"/>
      <point x="26" y="554" type="line"/>
      <point x="67" y="554" type="line"/>
      <point x="103" y="590"/>
      <point x="143" y="653"/>
      <point x="167" y="704" type="curve"/>
      <point x="167" y="714" type="line"/>
      <point x="86" y="714" type="line"/>
      <point x="73" y="668"/>
      <point x="48" y="611"/>
    </contour>
  </outline>
</glyph>
<glyph name="uni0375" format="2">
  <advance width="193"/>
  <unicode hex="0375"/>
  <outline>
    <contour>
      <point x="167" y="-72" type="curve"/>
      <point x="167" y="-60" type="line"/>
      <point x="126" y="-60" type="line"/>
      <point x="90" y="-96"/>
      <point x="50" y="-159"/>
      <point x="26" y="-210" type="curve"/>
      <point x="26" y="-220" type="line"/>
      <point x="107" y="-220" type="line"/>
      <point x="121" y="-174"/>
      <point x="144" y="-117"/>
    </contour>
  </outline>
</glyph>
<glyph name="tonos" format="2">
  <advance width="508"/>
  <unicode hex="0384"/>
  <anchor x="251" y="537" name="_top"/>
  <outline>
    <contour>
      <point x="217" y="618" type="curve"/>
      <point x="217" y="606" type="line"/>
      <point x="265" y="606" type="line"/>
      <point x="292" y="655"/>
      <point x="319" y="721"/>
      <point x="337" y="769" type="curve"/>
      <point x="337" y="780" type="line"/>
      <point x="257" y="780" type="line"/>
      <point x="252" y="751"/>
      <point x="227" y="648"/>
    </contour>
  </outline>
</glyph>
<glyph name="dieresistonos" format="2">
  <advance width="497"/>
  <unicode hex="0385"/>
  <anchor x="248" y="537" name="_top"/>
  <outline>
    <contour>
      <point x="315" y="789" type="line"/>
      <point x="242" y="789" type="line"/>
      <point x="240" y="755"/>
      <point x="230" y="701"/>
      <point x="218" y="658" type="curve"/>
      <point x="218" y="647" type="line"/>
      <point x="258" y="647" type="line"/>
      <point x="281" y="686"/>
      <point x="305" y="742"/>
      <point x="315" y="779" type="curve"/>
    </contour>
    <contour>
      <point x="155" y="698" type="curve" smooth="yes"/>
      <point x="131" y="698"/>
      <point x="113" y="680"/>
      <point x="113" y="646" type="curve" smooth="yes"/>
      <point x="113" y="613"/>
      <point x="131" y="595"/>
      <point x="155" y="595" type="curve" smooth="yes"/>
      <point x="178" y="595"/>
      <point x="195" y="613"/>
      <point x="195" y="646" type="curve" smooth="yes"/>
      <point x="195" y="680"/>
      <point x="178" y="698"/>
    </contour>
    <contour>
      <point x="342" y="699" type="curve" smooth="yes"/>
      <point x="319" y="699"/>
      <point x="301" y="681"/>
      <point x="301" y="647" type="curve" smooth="yes"/>
      <point x="301" y="614"/>
      <point x="319" y="595"/>
      <point x="342" y="595" type="curve" smooth="yes"/>
      <point x="365" y="595"/>
      <point x="383" y="614"/>
      <point x="383" y="646" type="curve" smooth="yes"/>
      <point x="383" y="681"/>
      <point x="365" y="699"/>
    </contour>
  </outline>
</glyph>
<glyph name="Gamma" format="2">
  <advance width="358"/>
  <unicode hex="0393"/>
  <anchor x="179" y="0" name="bottom"/>
  <anchor x="213" y="714" name="top"/>
  <outline>
    <contour>
      <point x="349" y="714" type="line"/>
      <point x="70" y="714" type="line"/>
      <point x="70" y="0" type="line"/>
      <point x="155" y="0" type="line"/>
      <point x="155" y="638" type="line"/>
      <point x="349" y="638" type="line"/>
    </contour>
  </outline>
</glyph>
<glyph name="Delta" format="2">
  <advance width="438"/>
  <unicode hex="0394"/>
  <anchor x="223" y="0" name="bottom"/>
  <anchor x="223" y="714" name="top"/>
  <outline>
    <contour>
      <point x="270" y="714" type="line"/>
      <point x="166" y="714" type="line"/>
      <point x="11" y="62" type="line"/>
      <point x="11" y="0" type="line"/>
      <point x="427" y="0" type="line"/>
      <point x="427" y="57" type="line"/>
    </contour>
    <contour>
      <point x="241" y="493" type="curve" smooth="yes"/>
      <point x="332" y="76" type="line"/>
      <point x="105" y="76" type="line"/>
      <point x="192" y="491" type="line" smooth="yes"/>
      <point x="201" y="532"/>
      <point x="210" y="587"/>
      <point x="217" y="631" type="curve"/>
      <point x="221" y="598"/>
      <point x="232" y="536"/>
    </contour>
  </outline>
</glyph>
<glyph name="Theta" format="2">
  <advance width="550"/>
  <unicode hex="0398"/>
  <anchor x="268" y="0" name="bottom"/>
  <anchor x="268" y="714" name="top"/>
  <anchor x="268" y="357" name="center"/>
  <anchor x="517" y="714" name="topright"/>
  <outline>
    <contour>
      <point x="357" y="400" type="line"/>
      <point x="186" y="400" type="line"/>
      <point x="186" y="327" type="line"/>
      <point x="357" y="327" type="line"/>
    </contour>
    <component base="O"/>
  </outline>
</glyph>
<glyph name="Lambda" format="2">
  <advance width="437"/>
  <unicode hex="039B"/>
  <anchor x="218" y="0" name="bottom"/>
  <anchor x="218" y="714" name="top"/>
  <outline>
    <contour>
      <point x="264" y="714" type="line"/>
      <point x="170" y="714" type="line"/>
      <point x="0" y="0" type="line"/>
      <point x="90" y="0" type="line"/>
      <point x="199" y="508" type="line" smooth="yes"/>
      <point x="207" y="545"/>
      <point x="213" y="581"/>
      <point x="216" y="617" type="curve"/>
      <point x="218" y="588"/>
      <point x="225" y="552"/>
      <point x="235" y="507" type="curve" smooth="yes"/>
      <point x="348" y="0" type="line"/>
      <point x="437" y="0" type="line"/>
    </contour>
  </outline>
</glyph>
<glyph name="Xi" format="2">
  <advance width="386"/>
  <unicode hex="039E"/>
  <anchor x="193" y="0" name="bottom"/>
  <anchor x="193" y="714" name="top"/>
  <outline>
    <contour>
      <point x="40" y="0" type="line"/>
      <point x="347" y="0" type="line"/>
      <point x="347" y="76" type="line"/>
      <point x="40" y="76" type="line"/>
    </contour>
    <contour>
      <point x="72" y="336" type="line"/>
      <point x="313" y="336" type="line"/>
      <point x="313" y="412" type="line"/>
      <point x="72" y="412" type="line"/>
    </contour>
    <contour>
      <point x="52" y="639" type="line"/>
      <point x="336" y="639" type="line"/>
      <point x="336" y="714" type="line"/>
      <point x="52" y="714" type="line"/>
    </contour>
  </outline>
</glyph>
<glyph name="Pi" format="2">
  <advance width="515"/>
  <unicode hex="03A0"/>
  <anchor x="258" y="0" name="bottom"/>
  <anchor x="258" y="714" name="top"/>
  <outline>
    <contour>
      <point x="70" y="0" type="line"/>
      <point x="155" y="0" type="line"/>
      <point x="155" y="638" type="line"/>
      <point x="361" y="638" type="line"/>
      <point x="361" y="0" type="line"/>
      <point x="446" y="0" type="line"/>
      <point x="446" y="714" type="line"/>
      <point x="70" y="714" type="line"/>
    </contour>
  </outline>
</glyph>
<glyph name="Sigma" format="2">
  <advance width="393"/>
  <unicode hex="03A3"/>
  <anchor x="196" y="0" name="bottom"/>
  <anchor x="196" y="714" name="top"/>
  <outline>
    <contour>
      <point x="29" y="0" type="line"/>
      <point x="368" y="0" type="line"/>
      <point x="368" y="76" type="line"/>
      <point x="190" y="76" type="line" smooth="yes"/>
      <point x="169" y="76"/>
      <point x="146" y="74"/>
      <point x="122" y="72" type="curve"/>
      <point x="280" y="372" type="line"/>
      <point x="132" y="642" type="line"/>
      <point x="152" y="640"/>
      <point x="173" y="639"/>
      <point x="200" y="639" type="curve" smooth="yes"/>
      <point x="352" y="639" type="line"/>
      <point x="352" y="714" type="line"/>
      <point x="36" y="714" type="line"/>
      <point x="36" y="646" type="line"/>
      <point x="187" y="372" type="line"/>
      <point x="29" y="70" type="line"/>
    </contour>
  </outline>
</glyph>
<glyph name="Psi" format="2">
  <advance width="622"/>
  <unicode hex="03A8"/>
  <anchor x="311" y="0" name="bottom"/>
  <anchor x="311" y="714" name="top"/>
  <outline>
    <contour>
      <point x="561" y="485" type="curve" smooth="yes"/>
      <point x="561" y="714" type="line"/>
      <point x="476" y="714" type="line"/>
      <point x="476" y="479" type="line" smooth="yes"/>
      <point x="476" y="340"/>
      <point x="443" y="289"/>
      <point x="353" y="288" type="curve"/>
      <point x="353" y="714" type="line"/>
      <point x="270" y="714" type="line"/>
      <point x="270" y="288" type="line"/>
      <point x="166" y="288"/>
      <point x="147" y="367"/>
      <point x="147" y="479" type="curve" smooth="yes"/>
      <point x="147" y="714" type="line"/>
      <point x="62" y="714" type="line"/>
      <point x="62" y="480" type="line" smooth="yes"/>
      <point x="62" y="308"/>
      <point x="116" y="213"/>
      <point x="270" y="213" type="curve"/>
      <point x="270" y="0" type="line"/>
      <point x="353" y="0" type="line"/>
      <point x="353" y="213" type="line"/>
      <point x="507" y="213"/>
      <point x="561" y="310"/>
    </contour>
  </outline>
</glyph>
<glyph name="Omega" format="2">
  <advance width="543"/>
  <unicode hex="03A9"/>
  <anchor x="272" y="0" name="bottom"/>
  <anchor x="272" y="714" name="top"/>
  <anchor x="20" y="714" name="topleft"/>
  <outline>
    <contour>
      <point x="273" y="648" type="curve" smooth="yes"/>
      <point x="363" y="648"/>
      <point x="405" y="559"/>
      <point x="405" y="397" type="curve" smooth="yes"/>
      <point x="405" y="249"/>
      <point x="379" y="144"/>
      <point x="307" y="67" type="curve"/>
      <point x="307" y="0" type="line"/>
      <point x="515" y="0" type="line"/>
      <point x="515" y="76" type="line"/>
      <point x="388" y="76" type="line"/>
      <point x="452" y="140"/>
      <point x="491" y="246"/>
      <point x="491" y="404" type="curve" smooth="yes"/>
      <point x="491" y="614"/>
      <point x="414" y="724"/>
      <point x="273" y="724" type="curve" smooth="yes"/>
      <point x="130" y="724"/>
      <point x="50" y="619"/>
      <point x="50" y="403" type="curve" smooth="yes"/>
      <point x="50" y="249"/>
      <point x="89" y="142"/>
      <point x="152" y="76" type="curve"/>
      <point x="27" y="76" type="line"/>
      <point x="27" y="0" type="line"/>
      <point x="234" y="0" type="line"/>
      <point x="234" y="67" type="line"/>
      <point x="167" y="142"/>
      <point x="138" y="251"/>
      <point x="138" y="396" type="curve" smooth="yes"/>
      <point x="138" y="566"/>
      <point x="184" y="648"/>
    </contour>
  </outline>
</glyph>
<glyph name="alpha" format="2">
  <advance width="465"/>
  <unicode hex="03B1"/>
  <anchor x="242" y="0" name="bottom"/>
  <anchor x="248" y="537" name="top"/>
  <outline>
    <contour>
      <point x="215" y="60" type="curve" smooth="yes"/>
      <point x="152" y="60"/>
      <point x="123" y="123"/>
      <point x="123" y="266" type="curve" smooth="yes"/>
      <point x="123" y="401"/>
      <point x="150" y="475"/>
      <point x="212" y="475" type="curve" smooth="yes"/>
      <point x="278" y="475"/>
      <point x="309" y="410"/>
      <point x="309" y="267" type="curve" smooth="yes"/>
      <point x="309" y="256" type="line" smooth="yes"/>
      <point x="309" y="129"/>
      <point x="278" y="60"/>
    </contour>
    <contour>
      <point x="193" y="-10" type="curve" smooth="yes"/>
      <point x="243" y="-10"/>
      <point x="285" y="20"/>
      <point x="311" y="75" type="curve"/>
      <point x="317" y="75" type="line"/>
      <point x="329" y="14"/>
      <point x="358" y="-10"/>
      <point x="413" y="-10" type="curve" smooth="yes"/>
      <point x="426" y="-10"/>
      <point x="448" y="-6"/>
      <point x="455" y="-1" type="curve"/>
      <point x="455" y="64" type="line"/>
      <point x="447" y="61"/>
      <point x="437" y="59"/>
      <point x="426" y="59" type="curve" smooth="yes"/>
      <point x="403" y="59"/>
      <point x="391" y="82"/>
      <point x="391" y="129" type="curve" smooth="yes"/>
      <point x="391" y="349" type="line"/>
      <point x="391" y="427"/>
      <point x="399" y="494"/>
      <point x="412" y="537" type="curve"/>
      <point x="346" y="537" type="line"/>
      <point x="336" y="518"/>
      <point x="326" y="487"/>
      <point x="321" y="460" type="curve"/>
      <point x="316" y="460" type="line"/>
      <point x="290" y="518"/>
      <point x="252" y="547"/>
      <point x="198" y="547" type="curve" smooth="yes"/>
      <point x="99" y="547"/>
      <point x="41" y="452"/>
      <point x="41" y="267" type="curve" smooth="yes"/>
      <point x="41" y="85"/>
      <point x="96" y="-10"/>
    </contour>
  </outline>
</glyph>
<glyph name="beta" format="2">
  <advance width="455"/>
  <unicode hex="03B2"/>
  <anchor x="264" y="0" name="bottom"/>
  <anchor x="231" y="765" name="top"/>
  <anchor x="383" y="765" name="topright"/>
  <outline>
    <contour>
      <point x="231" y="765" type="curve" smooth="yes"/>
      <point x="126" y="765"/>
      <point x="63" y="691"/>
      <point x="63" y="560" type="curve" smooth="yes"/>
      <point x="63" y="-240" type="line"/>
      <point x="144" y="-240" type="line"/>
      <point x="144" y="23" type="line"/>
      <point x="175" y="1"/>
      <point x="206" y="-10"/>
      <point x="251" y="-10" type="curve" smooth="yes"/>
      <point x="354" y="-10"/>
      <point x="416" y="67"/>
      <point x="416" y="201" type="curve" smooth="yes"/>
      <point x="416" y="323"/>
      <point x="377" y="387"/>
      <point x="287" y="401" type="curve"/>
      <point x="287" y="405" type="line"/>
      <point x="356" y="417"/>
      <point x="388" y="472"/>
      <point x="388" y="580" type="curve" smooth="yes"/>
      <point x="388" y="689"/>
      <point x="333" y="765"/>
    </contour>
    <contour>
      <point x="229" y="694" type="curve" smooth="yes"/>
      <point x="277" y="694"/>
      <point x="307" y="651"/>
      <point x="307" y="569" type="curve" smooth="yes"/>
      <point x="307" y="476"/>
      <point x="282" y="434"/>
      <point x="220" y="434" type="curve" smooth="yes"/>
      <point x="206" y="434" type="line"/>
      <point x="206" y="362" type="line"/>
      <point x="225" y="362" type="line" smooth="yes"/>
      <point x="298" y="362"/>
      <point x="333" y="311"/>
      <point x="333" y="210" type="curve" smooth="yes"/>
      <point x="333" y="111"/>
      <point x="302" y="63"/>
      <point x="235" y="63" type="curve" smooth="yes"/>
      <point x="206" y="63"/>
      <point x="168" y="76"/>
      <point x="144" y="97" type="curve"/>
      <point x="144" y="557" type="line" smooth="yes"/>
      <point x="144" y="645"/>
      <point x="175" y="694"/>
    </contour>
  </outline>
</glyph>
<glyph name="gamma" format="2">
  <advance width="362"/>
  <unicode hex="03B3"/>
  <anchor x="182" y="-240" name="bottom"/>
  <anchor x="182" y="537" name="top"/>
  <anchor x="353" y="537" name="topright"/>
  <outline>
    <contour>
      <point x="357" y="537" type="line"/>
      <point x="274" y="537" type="line"/>
      <point x="222" y="302" type="line" smooth="yes"/>
      <point x="206" y="229"/>
      <point x="192" y="163"/>
      <point x="186" y="104" type="curve"/>
      <point x="182" y="104" type="line"/>
      <point x="176" y="164"/>
      <point x="160" y="231"/>
      <point x="143" y="303" type="curve" smooth="yes"/>
      <point x="89" y="537" type="line"/>
      <point x="4" y="537" type="line"/>
      <point x="141" y="-8" type="line"/>
      <point x="127" y="-70"/>
      <point x="111" y="-182"/>
      <point x="111" y="-240" type="curve"/>
      <point x="196" y="-240" type="line"/>
      <point x="196" y="-161"/>
      <point x="212" y="-54"/>
      <point x="233" y="30" type="curve" smooth="yes"/>
    </contour>
  </outline>
</glyph>
<glyph name="delta" format="2">
  <advance width="436"/>
  <unicode hex="03B4"/>
  <anchor x="218" y="0" name="bottom"/>
  <anchor x="218" y="762" name="top"/>
  <outline>
    <contour>
      <point x="245" y="762" type="curve" smooth="yes"/>
      <point x="157" y="762"/>
      <point x="93" y="714"/>
      <point x="93" y="626" type="curve" smooth="yes"/>
      <point x="93" y="562"/>
      <point x="130" y="512"/>
      <point x="189" y="455" type="curve"/>
      <point x="97" y="418"/>
      <point x="40" y="327"/>
      <point x="40" y="215" type="curve" smooth="yes"/>
      <point x="40" y="87"/>
      <point x="97" y="-10"/>
      <point x="216" y="-10" type="curve" smooth="yes"/>
      <point x="333" y="-10"/>
      <point x="396" y="86"/>
      <point x="396" y="221" type="curve" smooth="yes"/>
      <point x="396" y="332"/>
      <point x="355" y="406"/>
      <point x="271" y="484" type="curve" smooth="yes"/>
      <point x="212" y="538"/>
      <point x="174" y="578"/>
      <point x="174" y="627" type="curve" smooth="yes"/>
      <point x="174" y="666"/>
      <point x="201" y="691"/>
      <point x="246" y="691" type="curve" smooth="yes"/>
      <point x="280" y="691"/>
      <point x="315" y="680"/>
      <point x="353" y="656" type="curve"/>
      <point x="383" y="724" type="line"/>
      <point x="348" y="745"/>
      <point x="300" y="762"/>
    </contour>
    <contour>
      <point x="233" y="412" type="curve"/>
      <point x="289" y="355"/>
      <point x="313" y="294"/>
      <point x="313" y="223" type="curve" smooth="yes"/>
      <point x="313" y="118"/>
      <point x="279" y="60"/>
      <point x="217" y="60" type="curve" smooth="yes"/>
      <point x="155" y="60"/>
      <point x="123" y="134"/>
      <point x="123" y="217" type="curve" smooth="yes"/>
      <point x="123" y="305"/>
      <point x="162" y="382"/>
    </contour>
  </outline>
</glyph>
<glyph name="zeta" format="2">
  <advance width="339"/>
  <unicode hex="03B6"/>
  <anchor x="169" y="-198" name="bottom"/>
  <anchor x="169" y="760" name="top"/>
  <outline>
    <contour>
      <point x="317" y="-56" type="curve" smooth="yes"/>
      <point x="317" y="24"/>
      <point x="265" y="56"/>
      <point x="213" y="80" type="curve" smooth="yes"/>
      <point x="136" y="116"/>
      <point x="124" y="154"/>
      <point x="124" y="232" type="curve" smooth="yes"/>
      <point x="124" y="405"/>
      <point x="208" y="561"/>
      <point x="319" y="701" type="curve"/>
      <point x="319" y="760" type="line"/>
      <point x="58" y="760" type="line"/>
      <point x="58" y="690" type="line"/>
      <point x="149" y="690" type="line"/>
      <point x="184" y="690"/>
      <point x="213" y="692"/>
      <point x="235" y="696" type="curve"/>
      <point x="110" y="528"/>
      <point x="41" y="394"/>
      <point x="41" y="225" type="curve" smooth="yes"/>
      <point x="41" y="100"/>
      <point x="75" y="52"/>
      <point x="157" y="13" type="curve" smooth="yes"/>
      <point x="217" y="-15"/>
      <point x="236" y="-37"/>
      <point x="236" y="-71" type="curve" smooth="yes"/>
      <point x="236" y="-100"/>
      <point x="211" y="-153"/>
      <point x="180" y="-198" type="curve"/>
      <point x="262" y="-198" type="line"/>
      <point x="291" y="-157"/>
      <point x="317" y="-99"/>
    </contour>
  </outline>
</glyph>
<glyph name="theta" format="2">
  <advance width="449"/>
  <unicode hex="03B8"/>
  <anchor x="225" y="0" name="bottom"/>
  <anchor x="225" y="771" name="top"/>
  <anchor x="382" y="771" name="topright"/>
  <outline>
    <contour>
      <point x="410" y="382" type="curve" smooth="yes"/>
      <point x="410" y="642"/>
      <point x="349" y="771"/>
      <point x="226" y="771" type="curve" smooth="yes"/>
      <point x="104" y="771"/>
      <point x="41" y="640"/>
      <point x="41" y="381" type="curve" smooth="yes"/>
      <point x="41" y="119"/>
      <point x="101" y="-10"/>
      <point x="224" y="-10" type="curve" smooth="yes"/>
      <point x="348" y="-10"/>
      <point x="410" y="120"/>
    </contour>
    <contour>
      <point x="224" y="59" type="curve" smooth="yes"/>
      <point x="159" y="59"/>
      <point x="126" y="158"/>
      <point x="123" y="354" type="curve"/>
      <point x="326" y="354" type="line"/>
      <point x="322" y="157"/>
      <point x="289" y="59"/>
    </contour>
    <contour>
      <point x="225" y="702" type="curve" smooth="yes"/>
      <point x="290" y="702"/>
      <point x="321" y="607"/>
      <point x="326" y="423" type="curve"/>
      <point x="124" y="423" type="line"/>
      <point x="129" y="608"/>
      <point x="160" y="702"/>
    </contour>
  </outline>
</glyph>
<glyph name="lambda" format="2">
  <advance width="396"/>
  <unicode hex="03BB"/>
  <anchor x="199" y="0" name="bottom"/>
  <anchor x="199" y="767" name="top"/>
  <outline>
    <contour>
      <point x="8" y="0" type="line"/>
      <point x="92" y="0" type="line"/>
      <point x="177" y="344" type="line" smooth="yes"/>
      <point x="182" y="364"/>
      <point x="185" y="385"/>
      <point x="187" y="405" type="curve"/>
      <point x="191" y="405" type="line"/>
      <point x="195" y="373"/>
      <point x="201" y="335"/>
      <point x="208" y="301" type="curve" smooth="yes"/>
      <point x="247" y="120" type="line" smooth="yes"/>
      <point x="266" y="32"/>
      <point x="297" y="-10"/>
      <point x="358" y="-10" type="curve" smooth="yes"/>
      <point x="373" y="-10"/>
      <point x="388" y="-8"/>
      <point x="400" y="-3" type="curve"/>
      <point x="400" y="68" type="line"/>
      <point x="392" y="65"/>
      <point x="383" y="63"/>
      <point x="372" y="63" type="curve" smooth="yes"/>
      <point x="346" y="63"/>
      <point x="332" y="83"/>
      <point x="321" y="134" type="curve" smooth="yes"/>
      <point x="211" y="629" type="line" smooth="yes"/>
      <point x="189" y="726"/>
      <point x="154" y="767"/>
      <point x="87" y="767" type="curve" smooth="yes"/>
      <point x="70" y="767"/>
      <point x="55" y="764"/>
      <point x="43" y="760" type="curve"/>
      <point x="43" y="691" type="line"/>
      <point x="51" y="695"/>
      <point x="62" y="697"/>
      <point x="75" y="697" type="curve" smooth="yes"/>
      <point x="110" y="697"/>
      <point x="123" y="669"/>
      <point x="133" y="620" type="curve" smooth="yes"/>
      <point x="152" y="529" type="line"/>
    </contour>
  </outline>
</glyph>
<glyph name="xi" format="2">
  <advance width="340"/>
  <unicode hex="03BE"/>
  <anchor x="170" y="-198" name="bottom"/>
  <anchor x="180" y="760" name="top"/>
  <outline>
    <contour>
      <point x="41" y="203" type="curve" smooth="yes"/>
      <point x="41" y="106"/>
      <point x="73" y="45"/>
      <point x="160" y="12" type="curve" smooth="yes"/>
      <point x="212" y="-8"/>
      <point x="234" y="-33"/>
      <point x="234" y="-71" type="curve" smooth="yes"/>
      <point x="234" y="-100"/>
      <point x="209" y="-153"/>
      <point x="177" y="-198" type="curve"/>
      <point x="261" y="-198" type="line"/>
      <point x="288" y="-157"/>
      <point x="315" y="-100"/>
      <point x="315" y="-57" type="curve" smooth="yes"/>
      <point x="315" y="12"/>
      <point x="281" y="53"/>
      <point x="212" y="79" type="curve" smooth="yes"/>
      <point x="146" y="104"/>
      <point x="124" y="140"/>
      <point x="124" y="215" type="curve" smooth="yes"/>
      <point x="124" y="316"/>
      <point x="166" y="363"/>
      <point x="240" y="363" type="curve" smooth="yes"/>
      <point x="286" y="363" type="line"/>
      <point x="286" y="435" type="line"/>
      <point x="246" y="435" type="line" smooth="yes"/>
      <point x="171" y="435"/>
      <point x="142" y="469"/>
      <point x="142" y="552" type="curve" smooth="yes"/>
      <point x="142" y="637"/>
      <point x="197" y="692"/>
      <point x="280" y="692" type="curve" smooth="yes"/>
      <point x="305" y="692" type="line"/>
      <point x="305" y="760" type="line"/>
      <point x="49" y="760" type="line"/>
      <point x="49" y="690" type="line"/>
      <point x="92" y="690" type="line" smooth="yes"/>
      <point x="114" y="690"/>
      <point x="136" y="691"/>
      <point x="161" y="694" type="curve"/>
      <point x="104" y="676"/>
      <point x="61" y="618"/>
      <point x="61" y="548" type="curve" smooth="yes"/>
      <point x="61" y="459"/>
      <point x="90" y="415"/>
      <point x="156" y="402" type="curve"/>
      <point x="156" y="398" type="line"/>
      <point x="76" y="379"/>
      <point x="41" y="298"/>
    </contour>
  </outline>
</glyph>
<glyph name="pi" format="2">
  <advance width="471"/>
  <unicode hex="03C0"/>
  <anchor x="236" y="0" name="bottom"/>
  <anchor x="236" y="537" name="top"/>
  <outline>
    <contour>
      <point x="414" y="65" type="curve" smooth="yes"/>
      <point x="389" y="65"/>
      <point x="377" y="84"/>
      <point x="377" y="132" type="curve" smooth="yes"/>
      <point x="377" y="467" type="line"/>
      <point x="453" y="467" type="line"/>
      <point x="453" y="537" type="line"/>
      <point x="54" y="537" type="line"/>
      <point x="6" y="501" type="line"/>
      <point x="6" y="467" type="line"/>
      <point x="81" y="467" type="line"/>
      <point x="81" y="0" type="line"/>
      <point x="162" y="0" type="line"/>
      <point x="162" y="467" type="line"/>
      <point x="295" y="467" type="line"/>
      <point x="295" y="131" type="line" smooth="yes"/>
      <point x="295" y="38"/>
      <point x="324" y="-7"/>
      <point x="388" y="-7" type="curve" smooth="yes"/>
      <point x="412" y="-7"/>
      <point x="435" y="-3"/>
      <point x="448" y="5" type="curve"/>
      <point x="448" y="72" type="line"/>
      <point x="437" y="67"/>
      <point x="424" y="65"/>
    </contour>
  </outline>
</glyph>
<glyph name="rho" format="2">
  <advance width="447"/>
  <unicode hex="03C1"/>
  <anchor x="224" y="-240" name="bottom"/>
  <anchor x="224" y="537" name="top"/>
  <outline>
    <contour>
      <point x="408" y="270" type="curve" smooth="yes"/>
      <point x="408" y="456"/>
      <point x="346" y="547"/>
      <point x="235" y="547" type="curve" smooth="yes"/>
      <point x="113" y="547"/>
      <point x="61" y="449"/>
      <point x="61" y="276" type="curve" smooth="yes"/>
      <point x="61" y="-240" type="line"/>
      <point x="142" y="-240" type="line"/>
      <point x="142" y="-98" type="line" smooth="yes"/>
      <point x="142" y="-59"/>
      <point x="141" y="-13"/>
      <point x="137" y="33" type="curve"/>
      <point x="142" y="33" type="line"/>
      <point x="165" y="6"/>
      <point x="198" y="-10"/>
      <point x="242" y="-10" type="curve" smooth="yes"/>
      <point x="356" y="-10"/>
      <point x="408" y="96"/>
    </contour>
    <contour>
      <point x="232" y="476" type="curve" smooth="yes"/>
      <point x="296" y="476"/>
      <point x="324" y="410"/>
      <point x="324" y="270" type="curve" smooth="yes"/>
      <point x="324" y="129"/>
      <point x="293" y="60"/>
      <point x="224" y="60" type="curve" smooth="yes"/>
      <point x="190" y="60"/>
      <point x="163" y="74"/>
      <point x="142" y="102" type="curve"/>
      <point x="142" y="286" type="line" smooth="yes"/>
      <point x="142" y="416"/>
      <point x="170" y="476"/>
    </contour>
  </outline>
</glyph>
<glyph name="sigma1" format="2">
  <advance width="334"/>
  <unicode hex="03C2"/>
  <anchor x="167" y="-198" name="bottom"/>
  <anchor x="204" y="537" name="top"/>
  <outline>
    <contour>
      <point x="219" y="547" type="curve" smooth="yes"/>
      <point x="102" y="547"/>
      <point x="41" y="449"/>
      <point x="41" y="261" type="curve" smooth="yes"/>
      <point x="41" y="113"/>
      <point x="71" y="55"/>
      <point x="161" y="14" type="curve" smooth="yes"/>
      <point x="218" y="-12"/>
      <point x="235" y="-36"/>
      <point x="235" y="-71" type="curve" smooth="yes"/>
      <point x="235" y="-100"/>
      <point x="211" y="-153"/>
      <point x="179" y="-198" type="curve"/>
      <point x="262" y="-198" type="line"/>
      <point x="290" y="-157"/>
      <point x="316" y="-100"/>
      <point x="316" y="-57" type="curve" smooth="yes"/>
      <point x="316" y="14"/>
      <point x="278" y="48"/>
      <point x="212" y="79" type="curve" smooth="yes"/>
      <point x="132" y="117"/>
      <point x="124" y="169"/>
      <point x="124" y="264" type="curve" smooth="yes"/>
      <point x="124" y="405"/>
      <point x="158" y="475"/>
      <point x="224" y="475" type="curve" smooth="yes"/>
      <point x="247" y="475"/>
      <point x="270" y="468"/>
      <point x="296" y="454" type="curve"/>
      <point x="320" y="522" type="line"/>
      <point x="290" y="538"/>
      <point x="257" y="547"/>
    </contour>
  </outline>
</glyph>
<glyph name="sigma" format="2">
  <advance width="450"/>
  <unicode hex="03C3"/>
  <anchor x="224" y="0" name="bottom"/>
  <anchor x="224" y="537" name="top"/>
  <outline>
    <contour>
      <point x="394" y="243" type="curve" smooth="yes"/>
      <point x="394" y="333"/>
      <point x="376" y="408"/>
      <point x="340" y="467" type="curve"/>
      <point x="431" y="467" type="line"/>
      <point x="431" y="537" type="line"/>
      <point x="260" y="537" type="line" smooth="yes"/>
      <point x="113" y="537"/>
      <point x="41" y="444"/>
      <point x="41" y="255" type="curve" smooth="yes"/>
      <point x="41" y="85"/>
      <point x="103" y="-10"/>
      <point x="216" y="-10" type="curve" smooth="yes"/>
      <point x="327" y="-10"/>
      <point x="394" y="80"/>
    </contour>
    <contour>
      <point x="123" y="258" type="curve" smooth="yes"/>
      <point x="123" y="402"/>
      <point x="162" y="467"/>
      <point x="246" y="467" type="curve" smooth="yes"/>
      <point x="270" y="467" type="line"/>
      <point x="298" y="398"/>
      <point x="311" y="328"/>
      <point x="311" y="251" type="curve" smooth="yes"/>
      <point x="311" y="126"/>
      <point x="280" y="60"/>
      <point x="217" y="60" type="curve" smooth="yes"/>
      <point x="156" y="60"/>
      <point x="123" y="124"/>
    </contour>
  </outline>
</glyph>
<glyph name="tau" format="2">
  <advance width="306"/>
  <unicode hex="03C4"/>
  <anchor x="153" y="-11" name="bottom"/>
  <anchor x="153" y="537" name="top"/>
  <outline>
    <contour>
      <point x="289" y="537" type="line"/>
      <point x="48" y="537" type="line"/>
      <point x="1" y="501" type="line"/>
      <point x="1" y="467" type="line"/>
      <point x="91" y="467" type="line"/>
      <point x="91" y="153" type="line" smooth="yes"/>
      <point x="91" y="41"/>
      <point x="125" y="-11"/>
      <point x="206" y="-11" type="curve" smooth="yes"/>
      <point x="230" y="-11"/>
      <point x="263" y="-5"/>
      <point x="279" y="4" type="curve"/>
      <point x="279" y="71" type="line"/>
      <point x="261" y="65"/>
      <point x="243" y="61"/>
      <point x="225" y="61" type="curve" smooth="yes"/>
      <point x="188" y="61"/>
      <point x="171" y="93"/>
      <point x="171" y="158" type="curve" smooth="yes"/>
      <point x="171" y="467" type="line"/>
      <point x="289" y="467" type="line"/>
    </contour>
  </outline>
</glyph>
<glyph name="upsilon" format="2">
  <advance width="435"/>
  <unicode hex="03C5"/>
  <anchor x="218" y="0" name="bottom"/>
  <anchor x="217" y="537" name="top"/>
  <outline>
    <contour>
      <point x="219" y="-9" type="curve"/>
      <point x="332" y="-9"/>
      <point x="393" y="86"/>
      <point x="393" y="269" type="curve" smooth="yes"/>
      <point x="393" y="374"/>
      <point x="386" y="428"/>
      <point x="364" y="537" type="curve"/>
      <point x="284" y="537" type="line"/>
      <point x="304" y="443"/>
      <point x="312" y="362"/>
      <point x="312" y="268" type="curve" smooth="yes"/>
      <point x="312" y="128"/>
      <point x="282" y="63"/>
      <point x="218" y="63" type="curve" smooth="yes"/>
      <point x="155" y="63"/>
      <point x="142" y="125"/>
      <point x="142" y="222" type="curve" smooth="yes"/>
      <point x="142" y="537" type="line"/>
      <point x="61" y="537" type="line"/>
      <point x="61" y="230" type="line"/>
      <point x="62" y="55"/>
      <point x="103" y="-7"/>
    </contour>
  </outline>
</glyph>
<glyph name="phi" format="2">
  <advance width="564"/>
  <unicode hex="03C6"/>
  <anchor x="282" y="-240" name="bottom"/>
  <anchor x="282" y="537" name="top"/>
  <outline>
    <contour>
      <point x="135" y="542" type="line"/>
      <point x="72" y="463"/>
      <point x="41" y="373"/>
      <point x="41" y="270" type="curve" smooth="yes"/>
      <point x="41" y="100"/>
      <point x="110" y="3"/>
      <point x="241" y="-8" type="curve"/>
      <point x="241" y="-240" type="line"/>
      <point x="320" y="-240" type="line"/>
      <point x="320" y="-8" type="line"/>
      <point x="457" y="6"/>
      <point x="525" y="125"/>
      <point x="525" y="288" type="curve" smooth="yes"/>
      <point x="525" y="427"/>
      <point x="474" y="547"/>
      <point x="368" y="547" type="curve" smooth="yes"/>
      <point x="282" y="547"/>
      <point x="241" y="489"/>
      <point x="241" y="368" type="curve" smooth="yes"/>
      <point x="241" y="62" type="line"/>
      <point x="164" y="74"/>
      <point x="124" y="144"/>
      <point x="124" y="269" type="curve" smooth="yes"/>
      <point x="124" y="357"/>
      <point x="149" y="438"/>
      <point x="196" y="501" type="curve"/>
    </contour>
    <contour>
      <point x="367" y="477" type="curve"/>
      <point x="409" y="477"/>
      <point x="441" y="403"/>
      <point x="441" y="287" type="curve" smooth="yes"/>
      <point x="441" y="155"/>
      <point x="393" y="71"/>
      <point x="319" y="62" type="curve"/>
      <point x="319" y="368" type="line" smooth="yes"/>
      <point x="319" y="443"/>
      <point x="332" y="477"/>
    </contour>
  </outline>
</glyph>
<glyph name="chi" format="2">
  <advance width="380"/>
  <unicode hex="03C7"/>
  <anchor x="190" y="-240" name="bottom"/>
  <anchor x="190" y="537" name="top"/>
  <anchor x="361" y="537" name="topright"/>
  <outline>
    <contour>
      <point x="60" y="544" type="curve" smooth="yes"/>
      <point x="42" y="544"/>
      <point x="26" y="541"/>
      <point x="14" y="537" type="curve"/>
      <point x="14" y="469" type="line"/>
      <point x="22" y="472"/>
      <point x="33" y="474"/>
      <point x="44" y="474" type="curve" smooth="yes"/>
      <point x="71" y="474"/>
      <point x="83" y="448"/>
      <point x="96" y="396" type="curve" smooth="yes"/>
      <point x="151" y="172" type="line"/>
      <point x="-3" y="-240" type="line"/>
      <point x="83" y="-240" type="line"/>
      <point x="180" y="60" type="line"/>
      <point x="218" y="-111" type="line" smooth="yes"/>
      <point x="239" y="-207"/>
      <point x="274" y="-240"/>
      <point x="330" y="-240" type="curve" smooth="yes"/>
      <point x="350" y="-240"/>
      <point x="365" y="-238"/>
      <point x="378" y="-233" type="curve"/>
      <point x="378" y="-165" type="line"/>
      <point x="369" y="-168"/>
      <point x="359" y="-170"/>
      <point x="349" y="-170" type="curve" smooth="yes"/>
      <point x="318" y="-170"/>
      <point x="307" y="-150"/>
      <point x="290" y="-79" type="curve" smooth="yes"/>
      <point x="232" y="167" type="line"/>
      <point x="369" y="537" type="line"/>
      <point x="286" y="537" type="line"/>
      <point x="202" y="278" type="line"/>
      <point x="171" y="421" type="line"/>
      <point x="148" y="509"/>
      <point x="117" y="544"/>
    </contour>
  </outline>
</glyph>
<glyph name="psi" format="2">
  <advance width="545"/>
  <unicode hex="03C8"/>
  <anchor x="273" y="-240" name="bottom"/>
  <anchor x="273" y="760" name="top"/>
  <outline>
    <contour>
      <point x="315" y="760" type="line"/>
      <point x="236" y="760" type="line"/>
      <point x="236" y="63" type="line"/>
      <point x="168" y="70"/>
      <point x="139" y="132"/>
      <point x="139" y="255" type="curve" smooth="yes"/>
      <point x="139" y="537" type="line"/>
      <point x="58" y="537" type="line"/>
      <point x="58" y="251" type="line" smooth="yes"/>
      <point x="58" y="80"/>
      <point x="120" y="-6"/>
      <point x="236" y="-9" type="curve"/>
      <point x="236" y="-240" type="line"/>
      <point x="315" y="-240" type="line"/>
      <point x="315" y="-9" type="line"/>
      <point x="437" y="-2"/>
      <point x="500" y="100"/>
      <point x="500" y="286" type="curve" smooth="yes"/>
      <point x="500" y="365"/>
      <point x="490" y="444"/>
      <point x="467" y="537" type="curve"/>
      <point x="387" y="537" type="line"/>
      <point x="408" y="451"/>
      <point x="417" y="369"/>
      <point x="417" y="288" type="curve" smooth="yes"/>
      <point x="417" y="140"/>
      <point x="388" y="70"/>
      <point x="315" y="63" type="curve"/>
    </contour>
  </outline>
</glyph>
<glyph name="omega" format="2">
  <advance width="548"/>
  <unicode hex="03C9"/>
  <anchor x="275" y="0" name="bottom"/>
  <anchor x="274" y="537" name="top"/>
  <outline>
    <contour>
      <point x="459" y="537" type="curve"/>
      <point x="377" y="537" type="line"/>
      <point x="407" y="450"/>
      <point x="422" y="355"/>
      <point x="422" y="260" type="curve" smooth="yes"/>
      <point x="422" y="130"/>
      <point x="404" y="65"/>
      <point x="365" y="65" type="curve" smooth="yes"/>
      <point x="328" y="65"/>
      <point x="313" y="113"/>
      <point x="313" y="215" type="curve" smooth="yes"/>
      <point x="313" y="348" type="line"/>
      <point x="234" y="348" type="line"/>
      <point x="234" y="215" type="line" smooth="yes"/>
      <point x="234" y="114"/>
      <point x="219" y="65"/>
      <point x="183" y="65" type="curve" smooth="yes"/>
      <point x="144" y="65"/>
      <point x="126" y="129"/>
      <point x="126" y="261" type="curve" smooth="yes"/>
      <point x="126" y="359"/>
      <point x="141" y="451"/>
      <point x="171" y="537" type="curve"/>
      <point x="90" y="537" type="line"/>
      <point x="58" y="442"/>
      <point x="45" y="358"/>
      <point x="45" y="260" type="curve" smooth="yes"/>
      <point x="45" y="87"/>
      <point x="91" y="-10"/>
      <point x="172" y="-10" type="curve" smooth="yes"/>
      <point x="226" y="-10"/>
      <point x="259" y="23"/>
      <point x="273" y="81" type="curve"/>
      <point x="275" y="81" type="line"/>
      <point x="288" y="23"/>
      <point x="323" y="-10"/>
      <point x="373" y="-10" type="curve" smooth="yes"/>
      <point x="454" y="-10"/>
      <point x="503" y="87"/>
      <point x="503" y="260" type="curve" smooth="yes"/>
      <point x="503" y="357"/>
      <point x="489" y="445"/>
    </contour>
  </outline>
</glyph>
<glyph name="uni03D2" format="2">
  <advance width="386"/>
  <unicode hex="03D2"/>
  <anchor x="193" y="714" name="top"/>
  <outline>
    <contour>
      <point x="193" y="379" type="curve"/>
      <point x="91" y="714" type="line"/>
      <point x="0" y="714" type="line"/>
      <point x="150" y="276" type="line"/>
      <point x="150" y="0" type="line"/>
      <point x="235" y="0" type="line"/>
      <point x="235" y="278" type="line"/>
      <point x="264" y="400"/>
      <point x="293" y="501"/>
      <point x="313" y="559" type="curve" smooth="yes"/>
      <point x="334" y="621"/>
      <point x="349" y="644"/>
      <point x="369" y="644" type="curve" smooth="yes"/>
      <point x="376" y="644"/>
      <point x="382" y="642"/>
      <point x="389" y="640" type="curve"/>
      <point x="389" y="712" type="line"/>
      <point x="377" y="717"/>
      <point x="364" y="720"/>
      <point x="349" y="720" type="curve" smooth="yes"/>
      <point x="288" y="720"/>
      <point x="271" y="668"/>
      <point x="249" y="599" type="curve" smooth="yes"/>
      <point x="235" y="555"/>
      <point x="216" y="484"/>
    </contour>
  </outline>
</glyph>
<glyph name="uni03D7" format="2">
  <advance width="479"/>
  <unicode hex="03D7"/>
  <outline>
    <contour>
      <point x="362" y="-240" type="curve" smooth="yes"/>
      <point x="424" y="-240"/>
      <point x="463" y="-198"/>
      <point x="463" y="-90" type="curve" smooth="yes"/>
      <point x="463" y="68" type="line"/>
      <point x="455" y="65"/>
      <point x="444" y="61"/>
      <point x="428" y="61" type="curve" smooth="yes"/>
      <point x="392" y="61"/>
      <point x="371" y="94"/>
      <point x="371" y="198" type="curve" smooth="yes"/>
      <point x="371" y="323"/>
      <point x="401" y="440"/>
      <point x="443" y="536" type="curve"/>
      <point x="353" y="536" type="line"/>
      <point x="157" y="181" type="line"/>
      <point x="169" y="226"/>
      <point x="178" y="281"/>
      <point x="178" y="370" type="curve" smooth="yes"/>
      <point x="178" y="500"/>
      <point x="129" y="547"/>
      <point x="67" y="547" type="curve" smooth="yes"/>
      <point x="40" y="547"/>
      <point x="18" y="543"/>
      <point x="5" y="536" type="curve"/>
      <point x="16" y="468" type="line"/>
      <point x="25" y="474"/>
      <point x="34" y="477"/>
      <point x="46" y="477" type="curve" smooth="yes"/>
      <point x="81" y="477"/>
      <point x="100" y="430"/>
      <point x="100" y="328" type="curve" smooth="yes"/>
      <point x="100" y="202"/>
      <point x="68" y="80"/>
      <point x="34" y="0" type="curve"/>
      <point x="121" y="0" type="line"/>
      <point x="312" y="348" type="line"/>
      <point x="303" y="296"/>
      <point x="292" y="236"/>
      <point x="292" y="165" type="curve" smooth="yes"/>
      <point x="292" y="40"/>
      <point x="331" y="-3"/>
      <point x="381" y="-6" type="curve"/>
      <point x="381" y="-89" type="line" smooth="yes"/>
      <point x="381" y="-148"/>
      <point x="369" y="-170"/>
      <point x="346" y="-170" type="curve" smooth="yes"/>
      <point x="335" y="-170"/>
      <point x="322" y="-169"/>
      <point x="310" y="-165" type="curve"/>
      <point x="310" y="-233" type="line"/>
      <point x="324" y="-237"/>
      <point x="344" y="-240"/>
    </contour>
  </outline>
</glyph>
<glyph name="uni03DB" format="2">
  <advance width="334"/>
  <unicode hex="03DB"/>
  <anchor x="167" y="-220" name="bottom"/>
  <anchor x="167" y="537" name="top"/>
  <outline>
    <contour>
      <point x="166" y="-220" type="curve" smooth="yes"/>
      <point x="262" y="-220"/>
      <point x="316" y="-168"/>
      <point x="316" y="-76" type="curve" smooth="yes"/>
      <point x="316" y="-4"/>
      <point x="292" y="41"/>
      <point x="212" y="79" type="curve" smooth="yes"/>
      <point x="133" y="117"/>
      <point x="124" y="169"/>
      <point x="124" y="264" type="curve" smooth="yes"/>
      <point x="124" y="405"/>
      <point x="158" y="475"/>
      <point x="224" y="475" type="curve" smooth="yes"/>
      <point x="247" y="475"/>
      <point x="270" y="468"/>
      <point x="296" y="454" type="curve"/>
      <point x="320" y="522" type="line"/>
      <point x="290" y="538"/>
      <point x="257" y="547"/>
      <point x="219" y="547" type="curve" smooth="yes"/>
      <point x="102" y="547"/>
      <point x="41" y="449"/>
      <point x="41" y="261" type="curve" smooth="yes"/>
      <point x="41" y="113"/>
      <point x="71" y="56"/>
      <point x="160" y="14" type="curve" smooth="yes"/>
      <point x="215" y="-13"/>
      <point x="236" y="-39"/>
      <point x="236" y="-83" type="curve" smooth="yes"/>
      <point x="236" y="-122"/>
      <point x="210" y="-147"/>
      <point x="164" y="-147" type="curve" smooth="yes"/>
      <point x="139" y="-147"/>
      <point x="111" y="-142"/>
      <point x="89" y="-133" type="curve"/>
      <point x="89" y="-210" type="line"/>
      <point x="113" y="-216"/>
      <point x="138" y="-220"/>
    </contour>
  </outline>
</glyph>
<glyph name="uni03DC" format="2">
  <advance width="373"/>
  <unicode hex="03DC"/>
  <anchor x="186" y="0" name="bottom"/>
  <anchor x="186" y="714" name="top"/>
  <outline>
    <contour>
      <point x="70" y="0" type="line"/>
      <point x="155" y="0" type="line"/>
      <point x="155" y="305" type="line"/>
      <point x="277" y="305" type="line"/>
      <point x="277" y="187" type="line"/>
      <point x="343" y="187" type="line"/>
      <point x="343" y="381" type="line"/>
      <point x="155" y="381" type="line"/>
      <point x="155" y="639" type="line"/>
      <point x="350" y="639" type="line"/>
      <point x="350" y="714" type="line"/>
      <point x="70" y="714" type="line"/>
    </contour>
  </outline>
</glyph>
<glyph name="uni03F1" format="2">
  <advance width="438"/>
  <unicode hex="03F1"/>
  <anchor x="219" y="-240" name="bottom"/>
  <anchor x="219" y="537" name="top"/>
  <outline>
    <contour>
      <point x="228" y="547" type="curve" smooth="yes"/>
      <point x="107" y="547"/>
      <point x="44" y="433"/>
      <point x="44" y="164" type="curve" smooth="yes"/>
      <point x="44" y="-81"/>
      <point x="79" y="-189"/>
      <point x="230" y="-189" type="curve" smooth="yes"/>
      <point x="263" y="-189"/>
      <point x="277" y="-196"/>
      <point x="277" y="-215" type="curve" smooth="yes"/>
      <point x="277" y="-227"/>
      <point x="275" y="-234"/>
      <point x="273" y="-240" type="curve"/>
      <point x="346" y="-240" type="line"/>
      <point x="349" y="-230"/>
      <point x="353" y="-214"/>
      <point x="353" y="-196" type="curve" smooth="yes"/>
      <point x="353" y="-133"/>
      <point x="319" y="-121"/>
      <point x="254" y="-121" type="curve" smooth="yes"/>
      <point x="159" y="-121"/>
      <point x="125" y="-63"/>
      <point x="125" y="77" type="curve"/>
      <point x="130" y="77" type="line"/>
      <point x="152" y="23"/>
      <point x="195" y="-11"/>
      <point x="243" y="-11" type="curve" smooth="yes"/>
      <point x="341" y="-11"/>
      <point x="398" y="86"/>
      <point x="398" y="260" type="curve" smooth="yes"/>
      <point x="398" y="441"/>
      <point x="337" y="547"/>
    </contour>
    <contour>
      <point x="226" y="477" type="curve" smooth="yes"/>
      <point x="283" y="477"/>
      <point x="316" y="407"/>
      <point x="316" y="266" type="curve" smooth="yes"/>
      <point x="316" y="127"/>
      <point x="285" y="58"/>
      <point x="222" y="58" type="curve" smooth="yes"/>
      <point x="179" y="58"/>
      <point x="141" y="113"/>
      <point x="127" y="169" type="curve"/>
      <point x="127" y="182"/>
      <point x="127" y="195"/>
      <point x="127" y="208" type="curve" smooth="yes"/>
      <point x="127" y="392"/>
      <point x="161" y="477"/>
    </contour>
  </outline>
</glyph>
<glyph name="uni03FC" format="2">
  <advance width="446"/>
  <unicode hex="03FC"/>
  <anchor x="224" y="-240" name="bottom"/>
  <anchor x="224" y="537" name="top"/>
  <outline>
    <contour>
      <point x="61" y="-240" type="line"/>
      <point x="142" y="-240" type="line"/>
      <point x="142" y="-154" type="line"/>
      <point x="252" y="-154" type="line"/>
      <point x="252" y="-92" type="line"/>
      <point x="142" y="-92" type="line"/>
      <point x="141" y="-48"/>
      <point x="140" y="-8"/>
      <point x="136" y="32" type="curve"/>
      <point x="142" y="32" type="line"/>
      <point x="165" y="4"/>
      <point x="201" y="-10"/>
      <point x="245" y="-10" type="curve" smooth="yes"/>
      <point x="361" y="-10"/>
      <point x="407" y="110"/>
      <point x="407" y="270" type="curve" smooth="yes"/>
      <point x="407" y="456"/>
      <point x="340" y="547"/>
      <point x="235" y="547" type="curve" smooth="yes"/>
      <point x="114" y="547"/>
      <point x="61" y="446"/>
      <point x="61" y="276" type="curve" smooth="yes"/>
      <point x="61" y="-92" type="line"/>
      <point x="4" y="-92" type="line"/>
      <point x="4" y="-154" type="line"/>
      <point x="61" y="-154" type="line"/>
    </contour>
    <contour>
      <point x="226" y="60" type="curve" smooth="yes"/>
      <point x="192" y="60"/>
      <point x="162" y="75"/>
      <point x="141" y="106" type="curve"/>
      <point x="141" y="283" type="line" smooth="yes"/>
      <point x="141" y="413"/>
      <point x="170" y="476"/>
      <point x="232" y="476" type="curve" smooth="yes"/>
      <point x="296" y="476"/>
      <point x="324" y="407"/>
      <point x="324" y="270" type="curve" smooth="yes"/>
      <point x="324" y="132"/>
      <point x="295" y="60"/>
    </contour>
  </outline>
</glyph>
<glyph name="afii10145" format="2">
  <advance width="515"/>
  <unicode hex="040F"/>
  <anchor x="258" y="-193" name="bottom"/>
  <anchor x="258" y="714" name="top"/>
  <outline>
    <contour>
      <point x="446" y="0" type="line"/>
      <point x="446" y="714" type="line"/>
      <point x="361" y="714" type="line"/>
      <point x="361" y="76" type="line"/>
      <point x="155" y="76" type="line"/>
      <point x="155" y="714" type="line"/>
      <point x="70" y="714" type="line"/>
      <point x="70" y="0" type="line"/>
      <point x="217" y="0" type="line"/>
      <point x="217" y="-193" type="line"/>
      <point x="299" y="-193" type="line"/>
      <point x="299" y="0" type="line"/>
    </contour>
  </outline>
</glyph>
<glyph name="afii10068" format="2">
  <advance width="313"/>
  <unicode hex="0433"/>
  <anchor x="157" y="0" name="bottom"/>
  <anchor x="189" y="537" name="top"/>
  <outline>
    <contour>
      <point x="303" y="537" type="line"/>
      <point x="63" y="537" type="line"/>
      <point x="63" y="0" type="line"/>
      <point x="144" y="0" type="line"/>
      <point x="144" y="466" type="line"/>
      <point x="303" y="466" type="line"/>
    </contour>
  </outline>
</glyph>
<glyph name="afii10193" format="2">
  <advance width="451"/>
  <unicode hex="045F"/>
  <anchor x="226" y="-187" name="bottom"/>
  <anchor x="226" y="537" name="top"/>
  <outline>
    <contour>
      <point x="186" y="0" type="line"/>
      <point x="186" y="-187" type="line"/>
      <point x="265" y="-187" type="line"/>
      <point x="265" y="0" type="line"/>
      <point x="388" y="0" type="line"/>
      <point x="388" y="537" type="line"/>
      <point x="306" y="537" type="line"/>
      <point x="306" y="71" type="line"/>
      <point x="144" y="71" type="line"/>
      <point x="144" y="537" type="line"/>
      <point x="63" y="537" type="line"/>
      <point x="63" y="0" type="line"/>
    </contour>
  </outline>
</glyph>
<glyph name="uni0488" format="2">
  <advance width="896"/>
  <unicode hex="0488"/>
  <outline>
    <contour>
      <point x="595" y="460" type="curve"/>
      <point x="634" y="460" type="line"/>
      <point x="637" y="494"/>
      <point x="657" y="507"/>
      <point x="695" y="507" type="curve" smooth="yes"/>
      <point x="733" y="507"/>
      <point x="755" y="493"/>
      <point x="757" y="460" type="curve"/>
      <point x="799" y="460" type="line"/>
      <point x="796" y="521"/>
      <point x="757" y="555"/>
      <point x="695" y="555" type="curve" smooth="yes"/>
      <point x="631" y="555"/>
      <point x="598" y="519"/>
    </contour>
    <contour>
      <point x="94" y="-20" type="curve"/>
      <point x="133" y="-20" type="line"/>
      <point x="136" y="14"/>
      <point x="157" y="27"/>
      <point x="195" y="27" type="curve" smooth="yes"/>
      <point x="232" y="27"/>
      <point x="254" y="12"/>
      <point x="257" y="-20" type="curve"/>
      <point x="298" y="-20" type="line"/>
      <point x="294" y="41"/>
      <point x="256" y="75"/>
      <point x="195" y="75" type="curve" smooth="yes"/>
      <point x="131" y="75"/>
      <point x="97" y="39"/>
    </contour>
    <contour>
      <point x="342" y="-156" type="curve"/>
      <point x="382" y="-156" type="line"/>
      <point x="384" y="-122"/>
      <point x="405" y="-109"/>
      <point x="443" y="-109" type="curve" smooth="yes"/>
      <point x="480" y="-109"/>
      <point x="502" y="-123"/>
      <point x="504" y="-156" type="curve"/>
      <point x="546" y="-156" type="line"/>
      <point x="543" y="-96"/>
      <point x="504" y="-61"/>
      <point x="443" y="-61" type="curve" smooth="yes"/>
      <point x="378" y="-61"/>
      <point x="346" y="-98"/>
    </contour>
    <contour>
      <point x="18" y="223" type="curve"/>
      <point x="57" y="223" type="line"/>
      <point x="60" y="257"/>
      <point x="81" y="270"/>
      <point x="119" y="270" type="curve" smooth="yes"/>
      <point x="158" y="270"/>
      <point x="178" y="253"/>
      <point x="180" y="223" type="curve"/>
      <point x="222" y="223" type="line"/>
      <point x="219" y="283"/>
      <point x="180" y="318"/>
      <point x="119" y="318" type="curve" smooth="yes"/>
      <point x="54" y="318"/>
      <point x="21" y="282"/>
    </contour>
    <contour>
      <point x="93" y="460" type="curve"/>
      <point x="132" y="460" type="line"/>
      <point x="135" y="493"/>
      <point x="156" y="507"/>
      <point x="194" y="507" type="curve" smooth="yes"/>
      <point x="231" y="507"/>
      <point x="253" y="492"/>
      <point x="255" y="460" type="curve"/>
      <point x="297" y="460" type="line"/>
      <point x="294" y="520"/>
      <point x="255" y="554"/>
      <point x="194" y="554" type="curve" smooth="yes"/>
      <point x="129" y="554"/>
      <point x="96" y="518"/>
    </contour>
    <contour>
      <point x="595" y="-20" type="curve"/>
      <point x="634" y="-20" type="line"/>
      <point x="637" y="14"/>
      <point x="657" y="27"/>
      <point x="695" y="27" type="curve" smooth="yes"/>
      <point x="733" y="27"/>
      <point x="755" y="13"/>
      <point x="757" y="-20" type="curve"/>
      <point x="799" y="-20" type="line"/>
      <point x="796" y="41"/>
      <point x="757" y="75"/>
      <point x="695" y="75" type="curve" smooth="yes"/>
      <point x="631" y="75"/>
      <point x="598" y="39"/>
    </contour>
    <contour>
      <point x="676" y="222" type="curve"/>
      <point x="715" y="222" type="line"/>
      <point x="718" y="256"/>
      <point x="738" y="269"/>
      <point x="777" y="269" type="curve" smooth="yes"/>
      <point x="813" y="269"/>
      <point x="835" y="255"/>
      <point x="839" y="222" type="curve"/>
      <point x="879" y="222" type="line"/>
      <point x="875" y="282"/>
      <point x="837" y="317"/>
      <point x="777" y="317" type="curve" smooth="yes"/>
      <point x="715" y="317"/>
      <point x="680" y="284"/>
    </contour>
    <contour>
      <point x="342" y="599" type="curve"/>
      <point x="381" y="599" type="line"/>
      <point x="384" y="633"/>
      <point x="405" y="646"/>
      <point x="443" y="646" type="curve" smooth="yes"/>
      <point x="480" y="646"/>
      <point x="502" y="632"/>
      <point x="505" y="599" type="curve"/>
      <point x="546" y="599" type="line"/>
      <point x="542" y="660"/>
      <point x="504" y="694"/>
      <point x="443" y="694" type="curve" smooth="yes"/>
      <point x="381" y="694"/>
      <point x="346" y="661"/>
    </contour>
  </outline>
</glyph>
<glyph name="uni0489" format="2">
  <advance width="902"/>
  <unicode hex="0489"/>
  <outline>
    <contour>
      <point x="760" y="583" type="line"/>
      <point x="706" y="563"/>
      <point x="647" y="534"/>
      <point x="607" y="510" type="curve"/>
      <point x="605" y="501" type="line"/>
      <point x="654" y="452" type="line"/>
      <point x="684" y="476"/>
      <point x="732" y="508"/>
      <point x="795" y="548" type="curve"/>
    </contour>
    <contour>
      <point x="249" y="73" type="line"/>
      <point x="219" y="50"/>
      <point x="172" y="18"/>
      <point x="108" y="-23" type="curve"/>
      <point x="143" y="-58" type="line"/>
      <point x="186" y="-42"/>
      <point x="257" y="-7"/>
      <point x="297" y="16" type="curve"/>
      <point x="299" y="24" type="line"/>
    </contour>
    <contour>
      <point x="18" y="323" type="curve"/>
      <point x="18" y="274" type="line"/>
      <point x="71" y="249"/>
      <point x="124" y="229"/>
      <point x="177" y="215" type="curve"/>
      <point x="184" y="219" type="line"/>
      <point x="184" y="289" type="line"/>
      <point x="145" y="295"/>
      <point x="90" y="306"/>
    </contour>
    <contour>
      <point x="501" y="-17" type="line"/>
      <point x="432" y="-17" type="line"/>
      <point x="426" y="-57"/>
      <point x="415" y="-114"/>
      <point x="398" y="-188" type="curve"/>
      <point x="447" y="-188" type="line"/>
      <point x="474" y="-130"/>
      <point x="493" y="-76"/>
      <point x="506" y="-24" type="curve"/>
    </contour>
    <contour>
      <point x="676" y="95" type="line"/>
      <point x="627" y="47" type="line"/>
      <point x="652" y="13"/>
      <point x="683" y="-35"/>
      <point x="720" y="-99" type="curve"/>
      <point x="755" y="-64" type="line"/>
      <point x="736" y="-8"/>
      <point x="707" y="53"/>
      <point x="684" y="94" type="curve"/>
    </contour>
    <contour>
      <point x="183" y="625" type="curve"/>
      <point x="147" y="590" type="line"/>
      <point x="170" y="528"/>
      <point x="193" y="476"/>
      <point x="218" y="432" type="curve"/>
      <point x="227" y="430" type="line"/>
      <point x="276" y="479" type="line"/>
      <point x="255" y="507"/>
      <point x="224" y="556"/>
    </contour>
    <contour>
      <point x="725" y="325" type="curve"/>
      <point x="719" y="320" type="line"/>
      <point x="719" y="251" type="line"/>
      <point x="759" y="244"/>
      <point x="814" y="233"/>
      <point x="884" y="216" type="curve"/>
      <point x="884" y="265" type="line"/>
      <point x="849" y="282"/>
      <point x="767" y="314"/>
    </contour>
    <contour>
      <point x="505" y="728" type="curve"/>
      <point x="455" y="728" type="line"/>
      <point x="432" y="676"/>
      <point x="409" y="614"/>
      <point x="397" y="564" type="curve"/>
      <point x="402" y="557" type="line"/>
      <point x="471" y="557" type="line"/>
      <point x="477" y="598"/>
      <point x="487" y="655"/>
    </contour>
  </outline>
</glyph>
<glyph name="uni052F" format="2">
  <advance width="440"/>
  <unicode hex="052F"/>
  <anchor x="223" y="-186" name="bottom"/>
  <anchor x="223" y="537" name="top"/>
  <outline>
    <contour>
      <point x="307" y="0" type="line"/>
      <point x="350" y="0" type="line"/>
      <point x="350" y="-186" type="line"/>
      <point x="423" y="-186" type="line"/>
      <point x="423" y="67" type="line"/>
      <point x="355" y="67" type="line"/>
    </contour>
    <component base="afii10077"/>
  </outline>
</glyph>
<glyph name="uni1AB9" format="2">
  <unicode hex="1AB9"/>
  <anchor x="-7" y="90" name="_bottom"/>
  <anchor x="-5" y="-240" name="bottom"/>
  <outline>
    <contour>
      <point x="18" y="40" type="line"/>
      <point x="-90" y="-240" type="line"/>
      <point x="-30" y="-240" type="line"/>
      <point x="78" y="40" type="line"/>
    </contour>
  </outline>
</glyph>
<glyph name="uni1ABA" format="2">
  <unicode hex="1ABA"/>
  <anchor x="-2" y="90" name="_bottom"/>
  <anchor x="-1" y="-233" name="bottom"/>
  <outline>
    <contour>
      <point x="18" y="40" type="line"/>
      <point x="-68" y="-181" type="line"/>
      <point x="-7" y="-181" type="line"/>
      <point x="78" y="40" type="line"/>
    </contour>
    <contour>
      <point x="-82" y="-179" type="curve" smooth="yes"/>
      <point x="-82" y="-214"/>
      <point x="-65" y="-233"/>
      <point x="-36" y="-233" type="curve" smooth="yes"/>
      <point x="-8" y="-233"/>
      <point x="8" y="-214"/>
      <point x="8" y="-179" type="curve" smooth="yes"/>
      <point x="8" y="-144"/>
      <point x="-8" y="-124"/>
      <point x="-36" y="-124" type="curve" smooth="yes"/>
      <point x="-66" y="-124"/>
      <point x="-82" y="-143"/>
    </contour>
  </outline>
</glyph>
<glyph name="uni1D03" format="2">
  <advance width="403"/>
  <unicode hex="1D03"/>
  <anchor x="203" y="0" name="bottom"/>
  <anchor x="203" y="537" name="top"/>
  <outline>
    <contour>
      <point x="9" y="252" type="line"/>
      <point x="398" y="252" type="line"/>
      <point x="398" y="312" type="line"/>
      <point x="9" y="312" type="line"/>
    </contour>
    <component base="uni0299"/>
  </outline>
</glyph>
<glyph name="uni1D24" format="2">
  <advance width="381"/>
  <unicode hex="1D24"/>
  <anchor x="193" y="0" name="bottom"/>
  <anchor x="195" y="760" name="top"/>
  <outline>
    <contour>
      <point x="192" y="-13" type="curve" smooth="yes"/>
      <point x="239" y="-13"/>
      <point x="288" y="3"/>
      <point x="325" y="30" type="curve"/>
      <point x="297" y="91" type="line"/>
      <point x="265" y="68"/>
      <point x="233" y="58"/>
      <point x="202" y="58" type="curve" smooth="yes"/>
      <point x="145" y="58"/>
      <point x="112" y="94"/>
      <point x="112" y="153" type="curve" smooth="yes"/>
      <point x="112" y="218"/>
      <point x="153" y="277"/>
      <point x="232" y="328" type="curve"/>
      <point x="232" y="394" type="line"/>
      <point x="313" y="455"/>
      <point x="353" y="526"/>
      <point x="353" y="607" type="curve" smooth="yes"/>
      <point x="353" y="704"/>
      <point x="290" y="766"/>
      <point x="193" y="766" type="curve" smooth="yes"/>
      <point x="145" y="766"/>
      <point x="97" y="750"/>
      <point x="59" y="723" type="curve"/>
      <point x="87" y="662" type="line"/>
      <point x="120" y="685"/>
      <point x="151" y="695"/>
      <point x="183" y="695" type="curve" smooth="yes"/>
      <point x="240" y="695"/>
      <point x="273" y="659"/>
      <point x="273" y="600" type="curve" smooth="yes"/>
      <point x="273" y="536"/>
      <point x="232" y="476"/>
      <point x="152" y="425" type="curve"/>
      <point x="152" y="359" type="line"/>
      <point x="71" y="298"/>
      <point x="32" y="226"/>
      <point x="32" y="146" type="curve" smooth="yes"/>
      <point x="32" y="49"/>
      <point x="94" y="-13"/>
    </contour>
  </outline>
</glyph>
<glyph name="uni1D28" format="2">
  <advance width="451"/>
  <unicode hex="1D28"/>
  <outline>
    <contour>
      <point x="388" y="0" type="line"/>
      <point x="388" y="537" type="line"/>
      <point x="63" y="537" type="line"/>
      <point x="63" y="0" type="line"/>
      <point x="144" y="0" type="line"/>
      <point x="144" y="467" type="line"/>
      <point x="306" y="467" type="line"/>
      <point x="306" y="0" type="line"/>
    </contour>
  </outline>
</glyph>
<glyph name="uni1D7A" format="2">
  <advance width="715"/>
  <unicode hex="1D7A"/>
  <anchor x="156" y="0" name="bottom_1"/>
  <anchor x="486" y="0" name="bottom_2"/>
  <anchor x="128" y="268" name="center_1"/>
  <anchor x="483" y="268" name="center_2"/>
  <anchor x="116" y="658" name="top_1"/>
  <anchor x="363" y="760" name="top_2"/>
  <anchor x="155" y="830" name="topright_1"/>
  <anchor x="635" y="760" name="topright_2"/>
  <outline>
    <contour>
      <point x="48" y="-75" type="line"/>
      <point x="101" y="-75" type="line"/>
      <point x="592" y="760" type="line"/>
      <point x="539" y="760" type="line"/>
    </contour>
    <component base="t"/>
    <component base="h" xOffset="259"/>
  </outline>
</glyph>
<glyph name="uni1D7B" format="2">
  <advance width="276"/>
  <unicode hex="1D7B"/>
  <anchor x="138" y="0" name="bottom"/>
  <anchor x="138" y="537" name="top"/>
  <outline>
    <contour>
      <point x="240" y="317" type="line"/>
      <point x="36" y="317" type="line"/>
      <point x="36" y="255" type="line"/>
      <point x="240" y="255" type="line"/>
    </contour>
    <component base="uni026A"/>
  </outline>
</glyph>
<glyph name="uni1D7C" format="2">
  <advance width="248"/>
  <unicode hex="1D7C"/>
  <anchor x="148" y="0" name="bottom"/>
  <anchor x="112" y="537" name="top"/>
  <outline>
    <contour>
      <point x="229" y="317" type="line"/>
      <point x="4" y="317" type="line"/>
      <point x="4" y="255" type="line"/>
      <point x="229" y="255" type="line"/>
    </contour>
    <component base="iota"/>
  </outline>
</glyph>
<glyph name="uni1D7D" format="2">
  <advance width="462"/>
  <unicode hex="1D7D"/>
  <anchor x="103" y="-240" name="bottom"/>
  <anchor x="245" y="537" name="top"/>
  <anchor x="431" y="537" name="topright"/>
  <outline>
    <contour>
      <point x="453" y="300" type="line"/>
      <point x="4" y="300" type="line"/>
      <point x="4" y="239" type="line"/>
      <point x="453" y="239" type="line"/>
    </contour>
    <component base="p"/>
  </outline>
</glyph>
<glyph name="uni1D7F" format="2">
  <advance width="448"/>
  <unicode hex="1D7F"/>
  <anchor x="224" y="0" name="bottom"/>
  <anchor x="224" y="537" name="top"/>
  <outline>
    <contour>
      <point x="452" y="300" type="line"/>
      <point x="0" y="300" type="line"/>
      <point x="0" y="239" type="line"/>
      <point x="452" y="239" type="line"/>
    </contour>
    <component base="uni028A"/>
  </outline>
</glyph>
<glyph name="ll-middleWelsh" format="2">
  <advance width="412"/>
  <unicode hex="1EFB"/>
  <anchor x="206" y="0" name="bottom"/>
  <anchor x="206" y="760" name="top"/>
  <anchor x="103" y="269" name="center_1"/>
  <anchor x="305" y="269" name="center_2"/>
  <anchor x="165" y="760" name="topright_1"/>
  <anchor x="367" y="760" name="topright_2"/>
  <outline>
    <contour>
      <point x="4" y="599" type="line"/>
      <point x="408" y="599" type="line"/>
      <point x="408" y="662" type="line"/>
      <point x="4" y="662" type="line"/>
    </contour>
    <component base="l"/>
    <component base="l" xOffset="202"/>
  </outline>
</glyph>
<glyph name="uni1FBD" format="2">
  <advance width="229"/>
  <unicode hex="1FBD"/>
  <anchor x="118" y="537" name="_top"/>
  <outline>
    <contour>
      <point x="73" y="587" type="line"/>
      <point x="132" y="590"/>
      <point x="164" y="632"/>
      <point x="164" y="693" type="curve" smooth="yes"/>
      <point x="164" y="739"/>
      <point x="142" y="760"/>
      <point x="118" y="760" type="curve" smooth="yes"/>
      <point x="93" y="760"/>
      <point x="79" y="744"/>
      <point x="79" y="715" type="curve" smooth="yes"/>
      <point x="79" y="686"/>
      <point x="93" y="670"/>
      <point x="118" y="670" type="curve"/>
      <point x="118" y="646"/>
      <point x="99" y="623"/>
      <point x="73" y="621" type="curve"/>
    </contour>
  </outline>
</glyph>
<glyph name="uni1FBE" format="2">
  <advance width="582"/>
  <unicode hex="1FBE"/>
  <outline>
    <contour>
      <point x="303" y="-59" type="line"/>
      <point x="234" y="-59" type="line"/>
      <point x="234" y="-143" type="line" smooth="yes"/>
      <point x="234" y="-198"/>
      <point x="263" y="-226"/>
      <point x="310" y="-226" type="curve" smooth="yes"/>
      <point x="331" y="-226"/>
      <point x="354" y="-220"/>
      <point x="367" y="-216" type="curve"/>
      <point x="367" y="-160" type="line"/>
      <point x="358" y="-162"/>
      <point x="345" y="-165"/>
      <point x="334" y="-165" type="curve" smooth="yes"/>
      <point x="316" y="-165"/>
      <point x="303" y="-155"/>
      <point x="303" y="-126" type="curve" smooth="yes"/>
    </contour>
  </outline>
</glyph>
<glyph name="uni1FC1" format="2">
  <advance width="476"/>
  <unicode hex="1FC1"/>
  <outline>
    <contour>
      <point x="110" y="755" type="curve"/>
      <point x="153" y="755" type="line"/>
      <point x="157" y="789"/>
      <point x="171" y="806"/>
      <point x="184" y="806" type="curve" smooth="yes"/>
      <point x="214" y="806"/>
      <point x="252" y="756"/>
      <point x="291" y="756" type="curve" smooth="yes"/>
      <point x="328" y="756"/>
      <point x="360" y="786"/>
      <point x="366" y="859" type="curve"/>
      <point x="321" y="859" type="line"/>
      <point x="318" y="822"/>
      <point x="307" y="808"/>
      <point x="292" y="808" type="curve" smooth="yes"/>
      <point x="262" y="808"/>
      <point x="224" y="858"/>
      <point x="187" y="858" type="curve" smooth="yes"/>
      <point x="146" y="858"/>
      <point x="117" y="824"/>
    </contour>
    <contour>
      <point x="168" y="614" type="curve" smooth="yes"/>
      <point x="190" y="614"/>
      <point x="204" y="630"/>
      <point x="204" y="663" type="curve" smooth="yes"/>
      <point x="204" y="695"/>
      <point x="190" y="711"/>
      <point x="168" y="711" type="curve" smooth="yes"/>
      <point x="145" y="711"/>
      <point x="132" y="697"/>
      <point x="132" y="663" type="curve" smooth="yes"/>
      <point x="132" y="630"/>
      <point x="145" y="614"/>
    </contour>
    <contour>
      <point x="303" y="614" type="curve" smooth="yes"/>
      <point x="325" y="614"/>
      <point x="339" y="630"/>
      <point x="339" y="663" type="curve" smooth="yes"/>
      <point x="339" y="695"/>
      <point x="325" y="711"/>
      <point x="303" y="711" type="curve" smooth="yes"/>
      <point x="278" y="711"/>
      <point x="265" y="697"/>
      <point x="265" y="663" type="curve" smooth="yes"/>
      <point x="265" y="630"/>
      <point x="278" y="614"/>
    </contour>
  </outline>
</glyph>
<glyph name="uni1FCD" format="2">
  <advance width="517"/>
  <unicode hex="1FCD"/>
  <outline>
    <contour>
      <point x="330" y="619" type="curve"/>
      <point x="367" y="619" type="line"/>
      <point x="367" y="631" type="line"/>
      <point x="356" y="670"/>
      <point x="346" y="718"/>
      <point x="339" y="765" type="curve"/>
      <point x="267" y="765" type="line"/>
      <point x="267" y="753" type="line"/>
      <point x="281" y="710"/>
      <point x="304" y="665"/>
    </contour>
    <contour>
      <point x="171" y="643" type="curve"/>
      <point x="171" y="614" type="line"/>
      <point x="222" y="616"/>
      <point x="253" y="655"/>
      <point x="253" y="708" type="curve" smooth="yes"/>
      <point x="253" y="752"/>
      <point x="236" y="771"/>
      <point x="209" y="771" type="curve" smooth="yes"/>
      <point x="185" y="771"/>
      <point x="171" y="754"/>
      <point x="171" y="730" type="curve" smooth="yes"/>
      <point x="171" y="699"/>
      <point x="195" y="693"/>
      <point x="204" y="686" type="curve"/>
      <point x="204" y="667"/>
      <point x="193" y="645"/>
    </contour>
  </outline>
</glyph>
<glyph name="uni1FCE" format="2">
  <advance width="516"/>
  <unicode hex="1FCE"/>
  <outline>
    <contour>
      <point x="267" y="631" type="curve"/>
      <point x="267" y="619" type="line"/>
      <point x="305" y="619" type="line"/>
      <point x="331" y="665"/>
      <point x="353" y="710"/>
      <point x="367" y="753" type="curve"/>
      <point x="367" y="765" type="line"/>
      <point x="296" y="765" type="line"/>
      <point x="289" y="718"/>
      <point x="278" y="670"/>
    </contour>
    <contour>
      <point x="172" y="643" type="curve"/>
      <point x="172" y="614" type="line"/>
      <point x="223" y="616"/>
      <point x="254" y="655"/>
      <point x="254" y="708" type="curve" smooth="yes"/>
      <point x="254" y="752"/>
      <point x="237" y="771"/>
      <point x="210" y="771" type="curve" smooth="yes"/>
      <point x="186" y="771"/>
      <point x="172" y="754"/>
      <point x="172" y="730" type="curve" smooth="yes"/>
      <point x="172" y="699"/>
      <point x="195" y="693"/>
      <point x="205" y="686" type="curve"/>
      <point x="205" y="667"/>
      <point x="194" y="645"/>
    </contour>
  </outline>
</glyph>
<glyph name="uni1FCF" format="2">
  <advance width="482"/>
  <unicode hex="1FCF"/>
  <outline>
    <contour>
      <point x="104" y="744" type="curve"/>
      <point x="147" y="744" type="line"/>
      <point x="154" y="781"/>
      <point x="169" y="801"/>
      <point x="184" y="801" type="curve" smooth="yes"/>
      <point x="215" y="801"/>
      <point x="257" y="745"/>
      <point x="301" y="745" type="curve" smooth="yes"/>
      <point x="342" y="745"/>
      <point x="374" y="782"/>
      <point x="380" y="855" type="curve"/>
      <point x="336" y="855" type="line"/>
      <point x="330" y="819"/>
      <point x="318" y="798"/>
      <point x="300" y="798" type="curve" smooth="yes"/>
      <point x="267" y="798"/>
      <point x="227" y="854"/>
      <point x="186" y="854" type="curve" smooth="yes"/>
      <point x="139" y="854"/>
      <point x="112" y="816"/>
    </contour>
    <contour>
      <point x="197" y="615" type="curve"/>
      <point x="197" y="588" type="line"/>
      <point x="247" y="590"/>
      <point x="279" y="626"/>
      <point x="279" y="675" type="curve" smooth="yes"/>
      <point x="279" y="714"/>
      <point x="261" y="733"/>
      <point x="233" y="733" type="curve" smooth="yes"/>
      <point x="210" y="733"/>
      <point x="197" y="717"/>
      <point x="197" y="694" type="curve" smooth="yes"/>
      <point x="197" y="667"/>
      <point x="220" y="662"/>
      <point x="228" y="655" type="curve"/>
      <point x="228" y="637"/>
      <point x="219" y="617"/>
    </contour>
  </outline>
</glyph>
<glyph name="uni1FDD" format="2">
  <advance width="525"/>
  <unicode hex="1FDD"/>
  <anchor x="260" y="537" name="_top"/>
  <anchor x="265" y="771" name="top"/>
  <outline>
    <contour>
      <point x="327" y="619" type="curve"/>
      <point x="363" y="619" type="line"/>
      <point x="363" y="631" type="line"/>
      <point x="353" y="670"/>
      <point x="342" y="718"/>
      <point x="336" y="765" type="curve"/>
      <point x="263" y="765" type="line"/>
      <point x="263" y="753" type="line"/>
      <point x="278" y="710"/>
      <point x="301" y="665"/>
    </contour>
    <contour>
      <point x="243" y="614" type="curve"/>
      <point x="243" y="643" type="line"/>
      <point x="221" y="645"/>
      <point x="210" y="667"/>
      <point x="210" y="686" type="curve"/>
      <point x="219" y="693"/>
      <point x="243" y="699"/>
      <point x="243" y="730" type="curve" smooth="yes"/>
      <point x="243" y="754"/>
      <point x="229" y="771"/>
      <point x="206" y="771" type="curve" smooth="yes"/>
      <point x="179" y="771"/>
      <point x="161" y="752"/>
      <point x="161" y="708" type="curve" smooth="yes"/>
      <point x="161" y="655"/>
      <point x="192" y="616"/>
    </contour>
  </outline>
</glyph>
<glyph name="uni1FDE" format="2">
  <advance width="524"/>
  <unicode hex="1FDE"/>
  <outline>
    <contour>
      <point x="272" y="631" type="curve"/>
      <point x="272" y="619" type="line"/>
      <point x="309" y="619" type="line"/>
      <point x="336" y="665"/>
      <point x="358" y="710"/>
      <point x="371" y="753" type="curve"/>
      <point x="371" y="765" type="line"/>
      <point x="300" y="765" type="line"/>
      <point x="294" y="718"/>
      <point x="283" y="670"/>
    </contour>
    <contour>
      <point x="250" y="614" type="curve"/>
      <point x="250" y="643" type="line"/>
      <point x="228" y="645"/>
      <point x="217" y="667"/>
      <point x="217" y="686" type="curve"/>
      <point x="226" y="693"/>
      <point x="250" y="699"/>
      <point x="250" y="730" type="curve" smooth="yes"/>
      <point x="250" y="754"/>
      <point x="236" y="771"/>
      <point x="213" y="771" type="curve" smooth="yes"/>
      <point x="186" y="771"/>
      <point x="168" y="752"/>
      <point x="168" y="708" type="curve" smooth="yes"/>
      <point x="168" y="655"/>
      <point x="199" y="616"/>
    </contour>
  </outline>
</glyph>
<glyph name="uni1FDF" format="2">
  <advance width="482"/>
  <unicode hex="1FDF"/>
  <outline>
    <contour>
      <point x="104" y="744" type="curve"/>
      <point x="147" y="744" type="line"/>
      <point x="154" y="781"/>
      <point x="167" y="801"/>
      <point x="183" y="801" type="curve" smooth="yes"/>
      <point x="214" y="801"/>
      <point x="257" y="745"/>
      <point x="301" y="745" type="curve" smooth="yes"/>
      <point x="342" y="745"/>
      <point x="374" y="782"/>
      <point x="380" y="855" type="curve"/>
      <point x="336" y="855" type="line"/>
      <point x="330" y="819"/>
      <point x="319" y="798"/>
      <point x="302" y="798" type="curve" smooth="yes"/>
      <point x="269" y="798"/>
      <point x="227" y="854"/>
      <point x="186" y="854" type="curve" smooth="yes"/>
      <point x="139" y="854"/>
      <point x="112" y="816"/>
    </contour>
    <contour>
      <point x="279" y="588" type="curve"/>
      <point x="279" y="615" type="line"/>
      <point x="257" y="617"/>
      <point x="246" y="637"/>
      <point x="246" y="655" type="curve"/>
      <point x="255" y="662"/>
      <point x="279" y="667"/>
      <point x="279" y="694" type="curve" smooth="yes"/>
      <point x="279" y="717"/>
      <point x="265" y="733"/>
      <point x="241" y="733" type="curve" smooth="yes"/>
      <point x="214" y="733"/>
      <point x="197" y="714"/>
      <point x="197" y="675" type="curve" smooth="yes"/>
      <point x="197" y="626"/>
      <point x="228" y="590"/>
    </contour>
  </outline>
</glyph>
<glyph name="uni1FED" format="2">
  <advance width="502"/>
  <unicode hex="1FED"/>
  <anchor x="252" y="537" name="_top"/>
  <outline>
    <contour>
      <point x="287" y="618" type="line"/>
      <point x="287" y="629" type="line"/>
      <point x="278" y="665"/>
      <point x="268" y="726"/>
      <point x="268" y="763" type="curve"/>
      <point x="194" y="763" type="line"/>
      <point x="194" y="753" type="line"/>
      <point x="205" y="714"/>
      <point x="227" y="656"/>
      <point x="248" y="618" type="curve"/>
    </contour>
    <contour>
      <point x="110" y="664" type="curve" smooth="yes"/>
      <point x="110" y="629"/>
      <point x="128" y="614"/>
      <point x="151" y="614" type="curve" smooth="yes"/>
      <point x="173" y="614"/>
      <point x="190" y="629"/>
      <point x="190" y="664" type="curve" smooth="yes"/>
      <point x="190" y="699"/>
      <point x="173" y="714"/>
      <point x="151" y="714" type="curve" smooth="yes"/>
      <point x="128" y="714"/>
      <point x="110" y="699"/>
    </contour>
    <contour>
      <point x="310" y="664" type="curve" smooth="yes"/>
      <point x="310" y="629"/>
      <point x="328" y="614"/>
      <point x="351" y="614" type="curve" smooth="yes"/>
      <point x="374" y="614"/>
      <point x="392" y="629"/>
      <point x="392" y="664" type="curve" smooth="yes"/>
      <point x="392" y="699"/>
      <point x="374" y="714"/>
      <point x="351" y="714" type="curve" smooth="yes"/>
      <point x="328" y="714"/>
      <point x="310" y="699"/>
    </contour>
  </outline>
</glyph>
<glyph name="uni1FEE" format="2">
  <advance width="502"/>
  <unicode hex="1FEE"/>
  <outline>
    <contour>
      <point x="214" y="629" type="curve"/>
      <point x="214" y="618" type="line"/>
      <point x="253" y="618" type="line"/>
      <point x="273" y="656"/>
      <point x="296" y="714"/>
      <point x="307" y="753" type="curve"/>
      <point x="307" y="763" type="line"/>
      <point x="233" y="763" type="line"/>
      <point x="231" y="726"/>
      <point x="222" y="665"/>
    </contour>
    <contour>
      <point x="151" y="614" type="curve" smooth="yes"/>
      <point x="173" y="614"/>
      <point x="190" y="629"/>
      <point x="190" y="664" type="curve" smooth="yes"/>
      <point x="190" y="699"/>
      <point x="173" y="714"/>
      <point x="151" y="714" type="curve" smooth="yes"/>
      <point x="128" y="714"/>
      <point x="110" y="699"/>
      <point x="110" y="664" type="curve" smooth="yes"/>
      <point x="110" y="629"/>
      <point x="128" y="614"/>
    </contour>
    <contour>
      <point x="351" y="614" type="curve" smooth="yes"/>
      <point x="374" y="614"/>
      <point x="392" y="629"/>
      <point x="392" y="664" type="curve" smooth="yes"/>
      <point x="392" y="699"/>
      <point x="374" y="714"/>
      <point x="351" y="714" type="curve" smooth="yes"/>
      <point x="328" y="714"/>
      <point x="310" y="699"/>
      <point x="310" y="664" type="curve" smooth="yes"/>
      <point x="310" y="629"/>
      <point x="328" y="614"/>
    </contour>
  </outline>
</glyph>
<glyph name="uni1FEF" format="2">
  <advance width="554"/>
  <unicode hex="1FEF"/>
  <anchor x="260" y="537" name="_top"/>
  <anchor x="245" y="767" name="top"/>
  <outline>
    <contour>
      <point x="295" y="606" type="line"/>
      <point x="295" y="619" type="line"/>
      <point x="286" y="658"/>
      <point x="276" y="720"/>
      <point x="271" y="767" type="curve"/>
      <point x="191" y="767" type="line"/>
      <point x="191" y="755" type="line"/>
      <point x="207" y="710"/>
      <point x="227" y="652"/>
      <point x="251" y="606" type="curve"/>
    </contour>
  </outline>
</glyph>
<glyph name="uni1FFD" format="2">
  <advance width="552"/>
  <unicode hex="1FFD"/>
  <anchor x="267" y="537" name="_top"/>
  <anchor x="290" y="767" name="top"/>
  <outline>
    <contour>
      <point x="229" y="606" type="line"/>
      <point x="274" y="606" type="line"/>
      <point x="300" y="645"/>
      <point x="329" y="710"/>
      <point x="345" y="755" type="curve"/>
      <point x="345" y="767" type="line"/>
      <point x="266" y="767" type="line"/>
      <point x="259" y="720"/>
      <point x="242" y="656"/>
      <point x="229" y="619" type="curve"/>
    </contour>
  </outline>
</glyph>
<glyph name="uni1FFE" format="2">
  <advance width="237"/>
  <unicode hex="1FFE"/>
  <anchor x="117" y="537" name="_top"/>
  <anchor x="120" y="776" name="top"/>
  <outline>
    <contour>
      <point x="163" y="603" type="curve"/>
      <point x="163" y="637" type="line"/>
      <point x="138" y="639"/>
      <point x="118" y="663"/>
      <point x="118" y="686" type="curve"/>
      <point x="143" y="686"/>
      <point x="157" y="701"/>
      <point x="157" y="731" type="curve" smooth="yes"/>
      <point x="157" y="759"/>
      <point x="142" y="776"/>
      <point x="118" y="776" type="curve" smooth="yes"/>
      <point x="93" y="776"/>
      <point x="73" y="755"/>
      <point x="73" y="709" type="curve" smooth="yes"/>
      <point x="73" y="648"/>
      <point x="104" y="607"/>
    </contour>
  </outline>
</glyph>
<glyph name="daggerdbl" format="2">
  <advance width="439"/>
  <unicode hex="2021"/>
  <outline>
    <contour>
      <point x="246" y="239" type="line"/>
      <point x="257" y="384" type="line"/>
      <point x="246" y="521" type="line"/>
      <point x="386" y="512" type="line"/>
      <point x="386" y="585" type="line"/>
      <point x="246" y="573" type="line"/>
      <point x="262" y="760" type="line"/>
      <point x="175" y="760" type="line"/>
      <point x="191" y="573" type="line"/>
      <point x="53" y="585" type="line"/>
      <point x="53" y="512" type="line"/>
      <point x="191" y="521" type="line"/>
      <point x="180" y="384" type="line"/>
      <point x="191" y="239" type="line"/>
      <point x="53" y="248" type="line"/>
      <point x="53" y="175" type="line"/>
      <point x="191" y="186" type="line"/>
      <point x="175" y="0" type="line"/>
      <point x="262" y="0" type="line"/>
      <point x="246" y="186" type="line"/>
      <point x="386" y="175" type="line"/>
      <point x="386" y="248" type="line"/>
    </contour>
  </outline>
</glyph>
<glyph name="plussuperior" format="2">
  <advance width="331"/>
  <unicode hex="207A"/>
  <outline>
    <contour>
      <point x="139" y="317" type="line"/>
      <point x="192" y="317" type="line"/>
      <point x="192" y="428" type="line"/>
      <point x="297" y="428" type="line"/>
      <point x="297" y="481" type="line"/>
      <point x="192" y="481" type="line"/>
      <point x="192" y="592" type="line"/>
      <point x="139" y="592" type="line"/>
      <point x="139" y="481" type="line"/>
      <point x="34" y="481" type="line"/>
      <point x="34" y="428" type="line"/>
      <point x="139" y="428" type="line"/>
    </contour>
  </outline>
</glyph>
<glyph name="equalsuperior" format="2">
  <advance width="331"/>
  <unicode hex="207C"/>
  <outline>
    <contour>
      <point x="34" y="485" type="line"/>
      <point x="297" y="485" type="line"/>
      <point x="297" y="537" type="line"/>
      <point x="34" y="537" type="line"/>
    </contour>
    <contour>
      <point x="34" y="372" type="line"/>
      <point x="297" y="372" type="line"/>
      <point x="297" y="424" type="line"/>
      <point x="34" y="424" type="line"/>
    </contour>
  </outline>
</glyph>
<glyph name="parenleftsuperior" format="2">
  <advance width="221"/>
  <unicode hex="207D"/>
  <outline>
    <contour>
      <point x="38" y="499" type="curve" smooth="yes"/>
      <point x="38" y="388"/>
      <point x="71" y="295"/>
      <point x="127" y="230" type="curve"/>
      <point x="193" y="230" type="line"/>
      <point x="131" y="303"/>
      <point x="101" y="402"/>
      <point x="101" y="499" type="curve" smooth="yes"/>
      <point x="101" y="599"/>
      <point x="132" y="695"/>
      <point x="193" y="767" type="curve"/>
      <point x="127" y="767" type="line"/>
      <point x="69" y="698"/>
      <point x="38" y="610"/>
    </contour>
  </outline>
</glyph>
<glyph name="parenrightsuperior" format="2">
  <advance width="221"/>
  <unicode hex="207E"/>
  <outline>
    <contour>
      <point x="183" y="501" type="curve" smooth="yes"/>
      <point x="183" y="604"/>
      <point x="153" y="699"/>
      <point x="94" y="767" type="curve"/>
      <point x="28" y="767" type="line"/>
      <point x="89" y="696"/>
      <point x="121" y="600"/>
      <point x="121" y="500" type="curve" smooth="yes"/>
      <point x="121" y="403"/>
      <point x="90" y="304"/>
      <point x="28" y="230" type="curve"/>
      <point x="94" y="230" type="line"/>
      <point x="152" y="300"/>
      <point x="183" y="389"/>
    </contour>
  </outline>
</glyph>
<glyph name="uni20A5" format="2">
  <advance width="682"/>
  <unicode hex="20A5"/>
  <anchor x="334" y="0" name="bottom"/>
  <anchor x="345" y="537" name="top"/>
  <anchor x="629" y="537" name="topright"/>
  <outline>
    <contour>
      <point x="497" y="666" type="line"/>
      <point x="438" y="666" type="line"/>
      <point x="192" y="-110" type="line"/>
      <point x="251" y="-110" type="line"/>
    </contour>
    <component base="m"/>
  </outline>
</glyph>
<glyph name="uni20A9" format="2">
  <advance width="539"/>
  <unicode hex="20A9"/>
  <outline>
    <contour>
      <point x="100" y="0" type="line"/>
      <point x="190" y="0" type="line"/>
      <point x="225" y="270" type="line"/>
      <point x="310" y="270" type="line"/>
      <point x="347" y="0" type="line"/>
      <point x="436" y="0" type="line"/>
      <point x="473" y="270" type="line"/>
      <point x="536" y="270" type="line"/>
      <point x="536" y="322" type="line"/>
      <point x="480" y="322" type="line"/>
      <point x="493" y="409" type="line"/>
      <point x="536" y="409" type="line"/>
      <point x="536" y="461" type="line"/>
      <point x="500" y="461" type="line"/>
      <point x="535" y="714" type="line"/>
      <point x="456" y="714" type="line"/>
      <point x="429" y="461" type="line"/>
      <point x="340" y="461" type="line"/>
      <point x="306" y="714" type="line"/>
      <point x="230" y="714" type="line"/>
      <point x="195" y="461" type="line"/>
      <point x="110" y="461" type="line"/>
      <point x="85" y="714" type="line"/>
      <point x="5" y="714" type="line"/>
      <point x="39" y="461" type="line"/>
      <point x="4" y="461" type="line"/>
      <point x="4" y="409" type="line"/>
      <point x="46" y="409" type="line"/>
      <point x="57" y="322" type="line"/>
      <point x="4" y="322" type="line"/>
      <point x="4" y="270" type="line"/>
      <point x="64" y="270" type="line"/>
    </contour>
    <contour>
      <point x="146" y="100" type="line"/>
      <point x="128" y="270" type="line"/>
      <point x="168" y="270" type="line"/>
    </contour>
    <contour>
      <point x="389" y="100" type="line"/>
      <point x="367" y="270" type="line"/>
      <point x="408" y="270" type="line"/>
    </contour>
    <contour>
      <point x="250" y="461" type="line"/>
      <point x="267" y="597" type="line"/>
      <point x="284" y="461" type="line"/>
    </contour>
    <contour>
      <point x="124" y="322" type="line"/>
      <point x="115" y="409" type="line"/>
      <point x="187" y="409" type="line"/>
      <point x="176" y="322" type="line"/>
    </contour>
    <contour>
      <point x="232" y="322" type="line"/>
      <point x="243" y="409" type="line"/>
      <point x="292" y="409" type="line"/>
      <point x="302" y="322" type="line"/>
    </contour>
    <contour>
      <point x="358" y="322" type="line"/>
      <point x="348" y="409" type="line"/>
      <point x="423" y="409" type="line"/>
      <point x="413" y="322" type="line"/>
    </contour>
  </outline>
</glyph>
<glyph name="response" format="2">
  <advance width="461"/>
  <unicode hex="211F"/>
  <anchor x="235" y="0" name="bottom"/>
  <anchor x="227" y="714" name="top"/>
  <anchor x="430" y="714" name="topright"/>
  <outline>
    <contour>
      <point x="297" y="771" type="line"/>
      <point x="82" y="-145" type="line"/>
      <point x="134" y="-145" type="line"/>
      <point x="359" y="805" type="line"/>
      <point x="140" y="858" type="line"/>
      <point x="127" y="810" type="line"/>
    </contour>
    <component base="R"/>
  </outline>
</glyph>
<glyph name="versicle" format="2">
  <advance width="441"/>
  <unicode hex="2123"/>
  <anchor x="214" y="0" name="bottom"/>
  <anchor x="218" y="714" name="top"/>
  <anchor x="413" y="714" name="topright"/>
  <outline>
    <contour>
      <point x="257" y="771" type="line"/>
      <point x="42" y="-145" type="line"/>
      <point x="94" y="-145" type="line"/>
      <point x="319" y="805" type="line"/>
      <point x="100" y="858" type="line"/>
      <point x="87" y="810" type="line"/>
    </contour>
    <component base="V"/>
  </outline>
</glyph>
<glyph name="uni214E" format="2">
  <advance width="333"/>
  <unicode hex="214E"/>
  <outline>
    <contour>
      <point x="29" y="0" type="line"/>
      <point x="269" y="0" type="line"/>
      <point x="269" y="535" type="line"/>
      <point x="189" y="535" type="line"/>
      <point x="189" y="312" type="line"/>
      <point x="41" y="312" type="line"/>
      <point x="41" y="244" type="line"/>
      <point x="189" y="244" type="line"/>
      <point x="189" y="69" type="line"/>
      <point x="29" y="69" type="line"/>
    </contour>
  </outline>
</glyph>
<glyph name="uni2C65" format="2">
  <advance width="416"/>
  <unicode hex="2C65"/>
  <anchor x="193" y="-208" name="bottom"/>
  <anchor x="209" y="760" name="top"/>
  <anchor x="370" y="537" name="topright"/>
  <outline>
    <contour>
      <point x="121" y="-208" type="line"/>
      <point x="343" y="760" type="line"/>
      <point x="294" y="760" type="line"/>
      <point x="73" y="-208" type="line"/>
    </contour>
    <component base="a"/>
  </outline>
</glyph>
<glyph name="uni2C66" format="2">
  <advance width="259"/>
  <unicode hex="2C66"/>
  <anchor x="156" y="-208" name="bottom"/>
  <anchor x="116" y="760" name="top"/>
  <anchor x="128" y="268" name="center"/>
  <anchor x="234" y="658" name="topright"/>
  <outline>
    <contour>
      <point x="61" y="-208" type="line"/>
      <point x="261" y="760" type="line"/>
      <point x="213" y="760" type="line"/>
      <point x="12" y="-208" type="line"/>
    </contour>
    <component base="t"/>
  </outline>
</glyph>
<glyph name="uni2C68" format="2">
  <advance width="471"/>
  <unicode hex="2C68"/>
  <anchor x="227" y="-187" name="bottom"/>
  <anchor x="104" y="760" name="top"/>
  <anchor x="224" y="268" name="center"/>
  <anchor x="376" y="760" name="topright"/>
  <outline>
    <contour>
      <point x="380" y="71" type="line"/>
      <point x="332" y="0" type="line"/>
      <point x="372" y="0" type="line"/>
      <point x="372" y="-187" type="line"/>
      <point x="451" y="-187" type="line"/>
      <point x="451" y="71" type="line"/>
    </contour>
    <component base="h"/>
  </outline>
</glyph>
<glyph name="brackhalftopleft" format="2">
  <advance width="303"/>
  <unicode hex="2E22"/>
  <outline>
    <contour>
      <point x="146" y="279" type="line"/>
      <point x="146" y="652" type="line"/>
      <point x="273" y="652" type="line"/>
      <point x="273" y="720" type="line"/>
      <point x="69" y="720" type="line"/>
      <point x="69" y="279" type="line"/>
    </contour>
  </outline>
</glyph>
<glyph name="uni2E44" format="2">
  <advance width="287"/>
  <unicode hex="2E44"/>
  <outline>
    <contour>
      <point x="82" y="552" type="line"/>
      <point x="247" y="714" type="line"/>
      <point x="180" y="766" type="line"/>
      <point x="40" y="589" type="line"/>
    </contour>
    <contour>
      <point x="82" y="-56" type="line"/>
      <point x="247" y="106" type="line"/>
      <point x="180" y="158" type="line"/>
      <point x="40" y="-19" type="line"/>
    </contour>
  </outline>
</glyph>
<glyph name="uniA643" format="2">
  <advance width="303"/>
  <unicode hex="A643"/>
  <outline>
    <contour>
      <point x="23" y="246" type="line"/>
      <point x="276" y="246" type="line"/>
      <point x="276" y="310" type="line"/>
      <point x="23" y="310" type="line"/>
    </contour>
    <component base="uniA641"/>
  </outline>
</glyph>
<glyph name="uniA65C" format="2">
  <advance width="699"/>
  <unicode hex="A65C"/>
  <outline>
    <contour>
      <point x="332" y="69" type="line"/>
      <point x="332" y="0" type="line"/>
      <point x="653" y="0" type="line"/>
      <point x="653" y="69" type="line"/>
    </contour>
    <component base="uniA656"/>
  </outline>
</glyph>
<glyph name="uniA663" format="2">
  <advance width="535"/>
  <unicode hex="A663"/>
  <anchor x="219" y="-187" name="bottom"/>
  <anchor x="229" y="537" name="top"/>
  <outline>
    <contour>
      <point x="525" y="537" type="line"/>
      <point x="281" y="537" type="line"/>
      <point x="281" y="0" type="line"/>
      <point x="362" y="0" type="line"/>
      <point x="362" y="466" type="line"/>
      <point x="525" y="466" type="line"/>
    </contour>
    <component base="afii10069"/>
  </outline>
</glyph>
<glyph name="uniA665" format="2">
  <advance width="530"/>
  <unicode hex="A665"/>
  <anchor x="210" y="0" name="bottom"/>
  <anchor x="210" y="537" name="top"/>
  <outline>
    <contour>
      <point x="520" y="537" type="line"/>
      <point x="276" y="537" type="line"/>
      <point x="276" y="0" type="line"/>
      <point x="357" y="0" type="line"/>
      <point x="357" y="464" type="line"/>
      <point x="520" y="464" type="line"/>
    </contour>
    <component base="afii10077"/>
  </outline>
</glyph>
<glyph name="uniA666" format="2">
  <advance width="840"/>
  <unicode hex="A666"/>
  <anchor x="350" y="0" name="bottom"/>
  <anchor x="351" y="714" name="top"/>
  <anchor x="680" y="714" name="topright"/>
  <outline>
    <contour>
      <point x="831" y="714" type="line"/>
      <point x="567" y="714" type="line"/>
      <point x="630" y="638" type="line"/>
      <point x="831" y="638" type="line"/>
    </contour>
    <component base="M"/>
  </outline>
</glyph>
<glyph name="uniA667" format="2">
  <advance width="678"/>
  <unicode hex="A667"/>
  <anchor x="279" y="0" name="bottom"/>
  <anchor x="279" y="537" name="top"/>
  <outline>
    <contour>
      <point x="658" y="537" type="line"/>
      <point x="464" y="537" type="line"/>
      <point x="494" y="466" type="line"/>
      <point x="658" y="466" type="line"/>
    </contour>
    <component base="afii10078"/>
  </outline>
</glyph>
<glyph name="uniA672" format="2">
  <unicode hex="A672"/>
  <outline>
    <contour>
      <point x="-540" y="433" type="line"/>
      <point x="-300" y="433" type="line"/>
      <point x="-300" y="478" type="line"/>
      <point x="-540" y="478" type="line"/>
    </contour>
    <contour>
      <point x="-540" y="63" type="line"/>
      <point x="-300" y="63" type="line"/>
      <point x="-300" y="108" type="line"/>
      <point x="-540" y="108" type="line"/>
    </contour>
    <contour>
      <point x="-540" y="248" type="line"/>
      <point x="-300" y="248" type="line"/>
      <point x="-300" y="293" type="line"/>
      <point x="-540" y="293" type="line"/>
    </contour>
    <contour>
      <point x="160" y="-51" type="line"/>
      <point x="160" y="-291" type="line"/>
      <point x="205" y="-291" type="line"/>
      <point x="205" y="-51" type="line"/>
    </contour>
    <contour>
      <point x="-209" y="-51" type="line"/>
      <point x="-209" y="-291" type="line"/>
      <point x="-164" y="-291" type="line"/>
      <point x="-164" y="-51" type="line"/>
    </contour>
    <contour>
      <point x="-25" y="-51" type="line"/>
      <point x="-25" y="-291" type="line"/>
      <point x="20" y="-291" type="line"/>
      <point x="20" y="-51" type="line"/>
    </contour>
    <contour>
      <point x="291" y="433" type="line"/>
      <point x="531" y="433" type="line"/>
      <point x="531" y="478" type="line"/>
      <point x="291" y="478" type="line"/>
    </contour>
    <contour>
      <point x="291" y="63" type="line"/>
      <point x="531" y="63" type="line"/>
      <point x="531" y="108" type="line"/>
      <point x="291" y="108" type="line"/>
    </contour>
    <contour>
      <point x="291" y="248" type="line"/>
      <point x="531" y="248" type="line"/>
      <point x="531" y="293" type="line"/>
      <point x="291" y="293" type="line"/>
    </contour>
    <contour>
      <point x="19" y="765" type="line"/>
      <point x="19" y="899" type="line"/>
      <point x="-28" y="899" type="line"/>
      <point x="-28" y="765" type="line"/>
      <point x="-125" y="765" type="line"/>
      <point x="-125" y="720" type="line"/>
      <point x="-28" y="720" type="line"/>
      <point x="-28" y="586" type="line"/>
      <point x="19" y="586" type="line"/>
      <point x="19" y="720" type="line"/>
      <point x="115" y="720" type="line"/>
      <point x="115" y="765" type="line"/>
    </contour>
  </outline>
</glyph>
<glyph name="uniA680" format="2">
  <advance width="516"/>
  <unicode hex="A680"/>
  <anchor x="253" y="-193" name="bottom"/>
  <anchor x="253" y="714" name="top"/>
  <outline>
    <contour>
      <point x="153" y="920" type="line"/>
      <point x="153" y="672" type="line"/>
      <point x="232" y="672" type="line"/>
      <point x="232" y="920" type="line"/>
    </contour>
    <component base="afii10021"/>
  </outline>
</glyph>
<glyph name="uniA684" format="2">
  <advance width="846"/>
  <unicode hex="A684"/>
  <anchor x="170" y="0" name="bottom_1"/>
  <anchor x="641" y="0" name="bottom_2"/>
  <anchor x="187" y="714" name="top_1"/>
  <anchor x="645" y="714" name="top_2"/>
  <outline>
    <contour>
      <point x="223" y="406" type="line"/>
      <point x="223" y="336" type="line"/>
      <point x="501" y="336" type="line"/>
      <point x="501" y="406" type="line"/>
    </contour>
    <component base="afii10025"/>
    <component base="afii10028" xOffset="414"/>
  </outline>
</glyph>
<glyph name="uniA685" format="2">
  <advance width="719"/>
  <unicode hex="A685"/>
  <anchor x="152" y="0" name="bottom_1"/>
  <anchor x="524" y="0" name="bottom_2"/>
  <anchor x="153" y="537" name="top_1"/>
  <anchor x="539" y="537" name="top_2"/>
  <outline>
    <contour>
      <point x="202" y="312" type="line"/>
      <point x="202" y="254" type="line"/>
      <point x="417" y="254" type="line"/>
      <point x="417" y="312" type="line"/>
    </contour>
    <component base="afii10073"/>
    <component base="afii10076" xOffset="329"/>
  </outline>
</glyph>
<glyph name="uniA69E" format="2">
  <unicode hex="A69E"/>
  <outline>
    <contour>
      <point x="27" y="762" type="line"/>
      <point x="-27" y="762" type="line"/>
      <point x="-27" y="625" type="line"/>
      <point x="-114" y="616"/>
      <point x="-156" y="551"/>
      <point x="-156" y="448" type="curve" smooth="yes"/>
      <point x="-156" y="347"/>
      <point x="-110" y="279"/>
      <point x="-27" y="271" type="curve"/>
      <point x="-27" y="123" type="line"/>
      <point x="27" y="123" type="line"/>
      <point x="27" y="271" type="line"/>
      <point x="113" y="280"/>
      <point x="155" y="347"/>
      <point x="155" y="448" type="curve" smooth="yes"/>
      <point x="155" y="549"/>
      <point x="111" y="615"/>
      <point x="27" y="625" type="curve"/>
    </contour>
    <contour>
      <point x="-27" y="575" type="curve"/>
      <point x="-27" y="320" type="line"/>
      <point x="-70" y="326"/>
      <point x="-96" y="374"/>
      <point x="-96" y="448" type="curve" smooth="yes"/>
      <point x="-96" y="522"/>
      <point x="-69" y="568"/>
    </contour>
    <contour>
      <point x="27" y="575" type="line"/>
      <point x="69" y="568"/>
      <point x="96" y="522"/>
      <point x="96" y="448" type="curve" smooth="yes"/>
      <point x="96" y="374"/>
      <point x="70" y="327"/>
      <point x="27" y="320" type="curve"/>
    </contour>
  </outline>
</glyph>
<glyph name="uniA717" format="2">
  <advance width="281"/>
  <unicode hex="A717"/>
  <outline>
    <contour>
      <point x="241" y="923" type="line"/>
      <point x="193" y="923" type="line"/>
      <point x="193" y="656" type="line"/>
      <point x="241" y="656" type="line"/>
    </contour>
    <contour>
      <point x="125" y="791" type="curve" smooth="yes"/>
      <point x="125" y="816"/>
      <point x="109" y="828"/>
      <point x="83" y="828" type="curve" smooth="yes"/>
      <point x="56" y="828"/>
      <point x="40" y="816"/>
      <point x="40" y="791" type="curve" smooth="yes"/>
      <point x="40" y="766"/>
      <point x="55" y="753"/>
      <point x="83" y="753" type="curve" smooth="yes"/>
      <point x="109" y="753"/>
      <point x="125" y="766"/>
    </contour>
  </outline>
</glyph>
<glyph name="uniA71D" format="2">
  <advance width="198"/>
  <unicode hex="A71D"/>
  <outline>
    <contour>
      <point x="117" y="466" type="line"/>
      <point x="133" y="818" type="line"/>
      <point x="65" y="818" type="line"/>
      <point x="80" y="466" type="line"/>
    </contour>
    <contour>
      <point x="57" y="350" type="curve" smooth="yes"/>
      <point x="57" y="318"/>
      <point x="73" y="304"/>
      <point x="98" y="304" type="curve" smooth="yes"/>
      <point x="122" y="304"/>
      <point x="139" y="318"/>
      <point x="139" y="350" type="curve" smooth="yes"/>
      <point x="139" y="382"/>
      <point x="122" y="396"/>
      <point x="98" y="396" type="curve" smooth="yes"/>
      <point x="73" y="396"/>
      <point x="57" y="382"/>
    </contour>
  </outline>
</glyph>
<glyph name="uniA734" format="2">
  <advance width="784"/>
  <unicode hex="A734"/>
  <anchor x="516" y="0" name="bottom"/>
  <anchor x="516" y="357" name="center"/>
  <anchor x="516" y="714" name="top"/>
  <anchor x="765" y="714" name="topright"/>
  <outline>
    <contour>
      <point x="142" y="223" type="line"/>
      <point x="392" y="223" type="line"/>
      <point x="274" y="714" type="line"/>
      <point x="173" y="714" type="line"/>
      <point x="0" y="0" type="line"/>
      <point x="90" y="0" type="line"/>
    </contour>
    <contour>
      <point x="293" y="301" type="line"/>
      <point x="155" y="301" type="line"/>
      <point x="206" y="536" type="line" smooth="yes"/>
      <point x="214" y="571"/>
      <point x="220" y="607"/>
      <point x="223" y="638" type="curve"/>
      <point x="226" y="607"/>
      <point x="232" y="573"/>
      <point x="240" y="536" type="curve" smooth="yes"/>
    </contour>
    <component base="O" xOffset="248"/>
  </outline>
</glyph>
<glyph name="uniA744" format="2">
  <advance width="437"/>
  <unicode hex="A744"/>
  <anchor x="246" y="0" name="bottom"/>
  <anchor x="243" y="714" name="top"/>
  <anchor x="418" y="714" name="topright"/>
  <outline>
    <contour>
      <point x="183" y="183" type="line"/>
      <point x="213" y="125" type="line"/>
      <point x="438" y="244" type="line"/>
      <point x="408" y="302" type="line"/>
    </contour>
    <component base="uniA740"/>
  </outline>
</glyph>
<glyph name="uniA749" format="2">
  <advance width="206"/>
  <unicode hex="A749"/>
  <anchor x="104" y="0" name="bottom"/>
  <anchor x="103" y="269" name="center"/>
  <anchor x="104" y="760" name="top"/>
  <anchor x="165" y="760" name="topright"/>
  <outline>
    <contour>
      <point x="200" y="664" type="line"/>
      <point x="7" y="664" type="line"/>
      <point x="7" y="600" type="line"/>
      <point x="200" y="600" type="line"/>
    </contour>
    <component base="l"/>
  </outline>
</glyph>
<glyph name="uniA74A" format="2">
  <advance width="536"/>
  <unicode hex="A74A"/>
  <anchor x="268" y="0" name="bottom"/>
  <anchor x="268" y="357" name="center"/>
  <anchor x="268" y="714" name="top"/>
  <anchor x="517" y="714" name="topright"/>
  <outline>
    <contour>
      <point x="0" y="332" type="line"/>
      <point x="536" y="332" type="line"/>
      <point x="536" y="398" type="line"/>
      <point x="0" y="398" type="line"/>
    </contour>
    <component base="O"/>
  </outline>
</glyph>
<glyph name="uniA74B" format="2">
  <advance width="433"/>
  <unicode hex="A74B"/>
  <anchor x="220" y="0" name="bottom"/>
  <anchor x="220" y="269" name="center"/>
  <anchor x="219" y="537" name="top"/>
  <anchor x="417" y="537" name="topright"/>
  <outline>
    <contour>
      <point x="0" y="245" type="line"/>
      <point x="436" y="245" type="line"/>
      <point x="436" y="309" type="line"/>
      <point x="0" y="309" type="line"/>
    </contour>
    <component base="o" xOffset="3"/>
  </outline>
</glyph>
<glyph name="uniA756" format="2">
  <advance width="536"/>
  <unicode hex="A756"/>
  <anchor x="268" y="-170" name="bottom"/>
  <anchor x="268" y="714" name="top"/>
  <anchor x="517" y="714" name="topright"/>
  <outline>
    <contour>
      <point x="220" y="-100" type="line"/>
      <point x="242" y="-156" type="line"/>
      <point x="520" y="-45" type="line"/>
      <point x="497" y="11" type="line"/>
    </contour>
    <component base="Q"/>
  </outline>
</glyph>
<glyph name="uniA757" format="2">
  <advance width="450"/>
  <unicode hex="A757"/>
  <anchor x="347" y="-240" name="bottom"/>
  <anchor x="225" y="537" name="top"/>
  <anchor x="412" y="537" name="topright"/>
  <outline>
    <contour>
      <point x="153" y="-158" type="line"/>
      <point x="462" y="-158" type="line"/>
      <point x="462" y="-95" type="line"/>
      <point x="153" y="-95" type="line"/>
    </contour>
    <component base="q"/>
  </outline>
</glyph>
<glyph name="uniA75C" format="2">
  <advance width="504"/>
  <unicode hex="A75C"/>
  <outline>
    <contour>
      <point x="488" y="135" type="line"/>
      <point x="488" y="209" type="line"/>
      <point x="149" y="209" type="line"/>
      <point x="149" y="216" type="line"/>
      <point x="238" y="310" type="line"/>
      <point x="310" y="380"/>
      <point x="353" y="458"/>
      <point x="353" y="554" type="curve" smooth="yes"/>
      <point x="353" y="654"/>
      <point x="296" y="725"/>
      <point x="198" y="725" type="curve" smooth="yes"/>
      <point x="133" y="725"/>
      <point x="79" y="699"/>
      <point x="36" y="647" type="curve"/>
      <point x="81" y="592" type="line"/>
      <point x="114" y="631"/>
      <point x="148" y="650"/>
      <point x="191" y="650" type="curve" smooth="yes"/>
      <point x="240" y="650"/>
      <point x="269" y="609"/>
      <point x="269" y="550" type="curve" smooth="yes"/>
      <point x="269" y="466"/>
      <point x="232" y="408"/>
      <point x="158" y="332" type="curve" smooth="yes"/>
      <point x="32" y="203" type="line"/>
      <point x="32" y="135" type="line"/>
    </contour>
    <contour>
      <point x="422" y="0" type="line"/>
      <point x="422" y="308" type="line"/>
      <point x="340" y="308" type="line"/>
      <point x="340" y="0" type="line"/>
    </contour>
  </outline>
</glyph>
<glyph name="uniA75E" format="2">
  <advance width="441"/>
  <unicode hex="A75E"/>
  <anchor x="214" y="0" name="bottom"/>
  <anchor x="218" y="714" name="top"/>
  <anchor x="413" y="714" name="topright"/>
  <outline>
    <contour>
      <point x="232" y="723" type="line"/>
      <point x="59" y="-9" type="line"/>
      <point x="109" y="-9" type="line"/>
      <point x="285" y="723" type="line"/>
    </contour>
    <component base="V"/>
  </outline>
</glyph>
<glyph name="uniA764" format="2">
  <advance width="426"/>
  <unicode hex="A764"/>
  <outline>
    <contour>
      <point x="201" y="559" type="curve" smooth="yes"/>
      <point x="155" y="559" type="line"/>
      <point x="155" y="606" type="line"/>
      <point x="243" y="606" type="line"/>
      <point x="243" y="671" type="line"/>
      <point x="155" y="671" type="line"/>
      <point x="155" y="714" type="line"/>
      <point x="70" y="714" type="line"/>
      <point x="70" y="671" type="line"/>
      <point x="11" y="671" type="line"/>
      <point x="11" y="606" type="line"/>
      <point x="70" y="606" type="line"/>
      <point x="70" y="0" type="line"/>
      <point x="155" y="0" type="line"/>
      <point x="155" y="137" type="line"/>
      <point x="200" y="137" type="line" smooth="yes"/>
      <point x="336" y="137"/>
      <point x="399" y="218"/>
      <point x="399" y="358" type="curve" smooth="yes"/>
      <point x="399" y="494"/>
      <point x="337" y="559"/>
    </contour>
    <contour>
      <point x="192" y="210" type="curve" smooth="yes"/>
      <point x="155" y="210" type="line"/>
      <point x="155" y="485" type="line"/>
      <point x="199" y="485" type="line" smooth="yes"/>
      <point x="279" y="485"/>
      <point x="314" y="447"/>
      <point x="314" y="353" type="curve" smooth="yes"/>
      <point x="314" y="255"/>
      <point x="282" y="210"/>
    </contour>
  </outline>
</glyph>
<glyph name="uniA767" format="2">
  <advance width="450"/>
  <unicode hex="A767"/>
  <anchor x="226" y="-240" name="bottom"/>
  <anchor x="226" y="760" name="top"/>
  <outline>
    <contour>
      <point x="310" y="-95" type="line"/>
      <point x="1" y="-95" type="line"/>
      <point x="1" y="-158" type="line"/>
      <point x="310" y="-158" type="line"/>
    </contour>
    <component base="thorn"/>
  </outline>
</glyph>
<glyph name="uniA776" format="2">
  <advance width="542"/>
  <unicode hex="A776"/>
  <anchor x="189" y="0" name="bottom"/>
  <anchor x="189" y="537" name="top"/>
  <outline>
    <contour>
      <point x="321" y="0" type="line"/>
      <point x="537" y="0" type="line"/>
      <point x="537" y="71" type="line"/>
      <point x="321" y="71" type="line"/>
    </contour>
    <contour>
      <point x="462" y="230" type="line"/>
      <point x="320" y="-157" type="line"/>
      <point x="385" y="-157" type="line"/>
      <point x="527" y="230" type="line"/>
    </contour>
    <component base="uni0280"/>
  </outline>
</glyph>
<glyph name="uniA790" format="2">
  <advance width="583"/>
  <unicode hex="A790"/>
  <anchor x="277" y="0" name="bottom"/>
  <anchor x="277" y="714" name="top"/>
  <anchor x="535" y="714" name="topright"/>
  <outline>
    <contour>
      <point x="458" y="0" type="line"/>
      <point x="458" y="-203" type="line"/>
      <point x="540" y="-203" type="line"/>
      <point x="540" y="76" type="line"/>
      <point x="486" y="76" type="line"/>
    </contour>
    <component base="N"/>
  </outline>
</glyph>
<glyph name="uniA792" format="2">
  <advance width="434"/>
  <unicode hex="A792"/>
  <anchor x="259" y="0" name="bottom"/>
  <anchor x="269" y="725" name="top"/>
  <anchor x="415" y="725" name="topright"/>
  <outline>
    <contour>
      <point x="0" y="318" type="line"/>
      <point x="369" y="318" type="line"/>
      <point x="369" y="388" type="line"/>
      <point x="0" y="388" type="line"/>
    </contour>
    <component base="C"/>
  </outline>
</glyph>
<glyph name="uniA799" format="2">
  <advance width="249"/>
  <unicode hex="A799"/>
  <anchor x="112" y="0" name="bottom"/>
  <anchor x="183" y="765" name="top"/>
  <anchor x="262" y="765" name="topright"/>
  <outline>
    <contour>
      <point x="238" y="337" type="line"/>
      <point x="10" y="337" type="line"/>
      <point x="10" y="276" type="line"/>
      <point x="238" y="276" type="line"/>
    </contour>
    <component base="f"/>
  </outline>
</glyph>
<glyph name="uniA7A1" format="2">
  <advance width="450"/>
  <unicode hex="A7A1"/>
  <anchor x="205" y="-240" name="bottom"/>
  <anchor x="233" y="537" name="top"/>
  <anchor x="403" y="537" name="topright"/>
  <outline>
    <contour>
      <point x="3" y="255" type="line"/>
      <point x="3" y="190" type="line"/>
      <point x="448" y="312" type="line"/>
      <point x="448" y="377" type="line"/>
    </contour>
    <component base="g"/>
  </outline>
</glyph>
<glyph name="uniA7A4" format="2">
  <advance width="554"/>
  <unicode hex="A7A4"/>
  <anchor x="277" y="0" name="bottom"/>
  <anchor x="277" y="714" name="top"/>
  <anchor x="535" y="714" name="topright"/>
  <outline>
    <contour>
      <point x="4" y="328" type="line"/>
      <point x="4" y="265" type="line"/>
      <point x="554" y="413" type="line"/>
      <point x="554" y="475" type="line"/>
    </contour>
    <component base="N"/>
  </outline>
</glyph>
<glyph name="uniA7A7" format="2">
  <advance width="304"/>
  <unicode hex="A7A7"/>
  <anchor x="108" y="0" name="bottom"/>
  <anchor x="172" y="537" name="top"/>
  <anchor x="278" y="537" name="topright"/>
  <outline>
    <contour>
      <point x="3" y="242" type="line"/>
      <point x="3" y="176" type="line"/>
      <point x="301" y="275" type="line"/>
      <point x="301" y="340" type="line"/>
    </contour>
    <component base="r"/>
  </outline>
</glyph>
<glyph name="uniA7AE" format="2">
  <advance width="413"/>
  <unicode hex="A7AE"/>
  <anchor x="207" y="0" name="bottom"/>
  <anchor x="207" y="714" name="top"/>
  <outline>
    <contour>
      <point x="383" y="714" type="line"/>
      <point x="29" y="714" type="line"/>
      <point x="29" y="668" type="line"/>
      <point x="165" y="650" type="line"/>
      <point x="165" y="63" type="line"/>
      <point x="29" y="46" type="line"/>
      <point x="29" y="0" type="line"/>
      <point x="383" y="0" type="line"/>
      <point x="383" y="46" type="line"/>
      <point x="248" y="63" type="line"/>
      <point x="248" y="650" type="line"/>
      <point x="383" y="668" type="line"/>
    </contour>
  </outline>
</glyph>
<glyph name="uniA7B8" format="2">
  <advance width="510"/>
  <unicode hex="A7B8"/>
  <anchor x="257" y="0" name="bottom"/>
  <anchor x="255" y="714" name="top"/>
  <anchor x="490" y="714" name="topright"/>
  <outline>
    <contour>
      <point x="95" y="-50" type="line"/>
      <point x="493" y="727" type="line"/>
      <point x="443" y="754" type="line"/>
      <point x="44" y="-25" type="line"/>
    </contour>
    <component base="U"/>
  </outline>
</glyph>
<glyph name="uniA7B9" format="2">
  <advance width="446"/>
  <unicode hex="A7B9"/>
  <anchor x="214" y="0" name="bottom"/>
  <anchor x="224" y="537" name="top"/>
  <anchor x="405" y="537" name="topright"/>
  <outline>
    <contour>
      <point x="94" y="-66" type="line"/>
      <point x="415" y="562" type="line"/>
      <point x="366" y="586" type="line"/>
      <point x="45" y="-42" type="line"/>
    </contour>
    <component base="u"/>
  </outline>
</glyph>
<glyph name="uniA7C7" format="2">
  <advance width="503"/>
  <unicode hex="A7C7"/>
  <anchor x="233" y="0" name="bottom"/>
  <anchor x="254" y="360" name="center"/>
  <anchor x="246" y="714" name="top"/>
  <anchor x="483" y="714" name="topright"/>
  <outline>
    <contour>
      <point x="117" y="333" type="line"/>
      <point x="422" y="333" type="line"/>
      <point x="422" y="402" type="line"/>
      <point x="117" y="402" type="line"/>
    </contour>
    <component base="D"/>
  </outline>
</glyph>
<glyph name="uniA7C9" format="2">
  <advance width="402"/>
  <unicode hex="A7C9"/>
  <anchor x="190" y="0" name="bottom"/>
  <anchor x="211" y="714" name="top"/>
  <anchor x="383" y="714" name="topright"/>
  <outline>
    <contour>
      <point x="13" y="335" type="line"/>
      <point x="394" y="335" type="line"/>
      <point x="394" y="400" type="line"/>
      <point x="13" y="400" type="line"/>
    </contour>
    <component base="S"/>
  </outline>
</glyph>
<glyph name="uniA7CA" format="2">
  <advance width="331"/>
  <unicode hex="A7CA"/>
  <anchor x="154" y="0" name="bottom"/>
  <anchor x="175" y="537" name="top"/>
  <anchor x="302" y="537" name="topright"/>
  <outline>
    <contour>
      <point x="16" y="245" type="line"/>
      <point x="322" y="245" type="line"/>
      <point x="322" y="310" type="line"/>
      <point x="16" y="310" type="line"/>
    </contour>
    <component base="s"/>
  </outline>
</glyph>
<glyph name="uniAB30" format="2">
  <advance width="462"/>
  <unicode hex="AB30"/>
  <anchor x="225" y="0" name="bottom"/>
  <anchor x="225" y="537" name="top"/>
  <outline>
    <contour>
      <point x="3" y="309" type="line"/>
      <point x="3" y="244" type="line"/>
      <point x="454" y="244" type="line"/>
      <point x="454" y="309" type="line"/>
    </contour>
    <component base="uni0251"/>
  </outline>
</glyph>
<glyph name="uniAB41" format="2">
  <advance width="676"/>
  <unicode hex="AB41"/>
  <anchor x="338" y="534" name="bottom"/>
  <anchor x="338" y="-3" name="top"/>
  <outline>
    <contour>
      <point x="328" y="-66" type="line"/>
      <point x="626" y="564" type="line"/>
      <point x="580" y="586" type="line"/>
      <point x="283" y="-44" type="line"/>
    </contour>
    <component base="oe" xScale="-1" yScale="-1" xOffset="676" yOffset="534"/>
  </outline>
</glyph>
<glyph name="uniAB42" format="2">
  <advance width="676"/>
  <unicode hex="AB42"/>
  <anchor x="338" y="534" name="bottom"/>
  <anchor x="338" y="-3" name="top"/>
  <outline>
    <contour>
      <point x="315" y="297" type="line"/>
      <point x="315" y="237" type="line"/>
      <point x="608" y="237" type="line"/>
      <point x="608" y="297" type="line"/>
    </contour>
    <component base="oe" xScale="-1" yScale="-1" xOffset="676" yOffset="534"/>
  </outline>
</glyph>
<glyph name="uniAB4F" format="2">
  <advance width="446"/>
  <unicode hex="AB4F"/>
  <outline>
    <contour>
      <point x="5" y="267" type="line"/>
      <point x="5" y="203" type="line"/>
      <point x="442" y="203" type="line"/>
      <point x="442" y="267" type="line"/>
    </contour>
    <component base="uniAB4E"/>
  </outline>
</glyph>
<glyph name="uniAB60" format="2">
  <advance width="594"/>
  <unicode hex="AB60"/>
  <outline>
    <contour>
      <point x="255" y="0" type="line"/>
      <point x="392" y="0" type="line" smooth="yes"/>
      <point x="500" y="0"/>
      <point x="561" y="55"/>
      <point x="561" y="159" type="curve" smooth="yes"/>
      <point x="561" y="262"/>
      <point x="501" y="315"/>
      <point x="388" y="315" type="curve" smooth="yes"/>
      <point x="336" y="315" type="line"/>
      <point x="336" y="537" type="line"/>
      <point x="255" y="537" type="line"/>
    </contour>
    <contour>
      <point x="75" y="0" type="line"/>
      <point x="156" y="0" type="line"/>
      <point x="156" y="537" type="line"/>
      <point x="75" y="537" type="line"/>
    </contour>
    <contour>
      <point x="336" y="65" type="line"/>
      <point x="336" y="250" type="line"/>
      <point x="389" y="250" type="line"/>
      <point x="450" y="250"/>
      <point x="479" y="218"/>
      <point x="479" y="156" type="curve" smooth="yes"/>
      <point x="479" y="96"/>
      <point x="448" y="65"/>
      <point x="389" y="65" type="curve" smooth="yes"/>
    </contour>
  </outline>
</glyph>
<glyph name="uniAB61" format="2">
  <advance width="598"/>
  <unicode hex="AB61"/>
  <anchor x="415" y="0" name="bottom"/>
  <anchor x="398" y="537" name="top"/>
  <anchor x="579" y="537" name="topright"/>
  <outline>
    <contour>
      <point x="258" y="252" type="line"/>
      <point x="259" y="318" type="line"/>
      <point x="140" y="318" type="line"/>
      <point x="140" y="536" type="line"/>
      <point x="59" y="536" type="line"/>
      <point x="59" y="0" type="line"/>
      <point x="140" y="0" type="line"/>
      <point x="140" y="252" type="line"/>
    </contour>
    <component base="e" xOffset="191"/>
  </outline>
</glyph>
<glyph name="uniFE20" format="2">
  <unicode hex="FE20"/>
  <outline>
    <contour>
      <point x="-268" y="587" type="curve"/>
      <point x="-209" y="587" type="line"/>
      <point x="-172" y="671"/>
      <point x="-94" y="704"/>
      <point x="1" y="704" type="curve"/>
      <point x="5" y="704" type="line"/>
      <point x="5" y="774" type="line"/>
      <point x="1" y="774" type="line" smooth="yes"/>
      <point x="-121" y="774"/>
      <point x="-221" y="720"/>
    </contour>
  </outline>
</glyph>
<glyph name="uniFE21" format="2">
  <unicode hex="FE21"/>
  <outline>
    <contour>
      <point x="-2" y="774" type="curve"/>
      <point x="-5" y="774" type="line"/>
      <point x="-5" y="704" type="line"/>
      <point x="-2" y="704" type="line" smooth="yes"/>
      <point x="99" y="704"/>
      <point x="176" y="672"/>
      <point x="211" y="587" type="curve"/>
      <point x="269" y="587" type="line"/>
      <point x="227" y="720"/>
      <point x="130" y="774"/>
    </contour>
  </outline>
</glyph>
<glyph name="uniFE22" format="2">
  <unicode hex="FE22"/>
  <outline>
    <contour>
      <point x="-81" y="638" type="curve"/>
      <point x="-81" y="703" type="line"/>
      <point x="-127" y="718"/>
      <point x="-174" y="733"/>
      <point x="-228" y="733" type="curve"/>
      <point x="-296" y="733"/>
      <point x="-340" y="696"/>
      <point x="-350" y="607" type="curve"/>
      <point x="-306" y="607" type="line"/>
      <point x="-299" y="646"/>
      <point x="-276" y="668"/>
      <point x="-226" y="668" type="curve"/>
      <point x="-177" y="668"/>
      <point x="-131" y="654"/>
    </contour>
  </outline>
</glyph>
<glyph name="uniFE23" format="2">
  <unicode hex="FE23"/>
  <outline>
    <contour>
      <point x="0" y="703" type="curve"/>
      <point x="0" y="638" type="line"/>
      <point x="46" y="623"/>
      <point x="95" y="608"/>
      <point x="148" y="608" type="curve"/>
      <point x="212" y="608"/>
      <point x="260" y="645"/>
      <point x="269" y="735" type="curve"/>
      <point x="225" y="735" type="line"/>
      <point x="219" y="697"/>
      <point x="194" y="673"/>
      <point x="142" y="673" type="curve"/>
      <point x="96" y="673"/>
      <point x="49" y="688"/>
    </contour>
  </outline>
</glyph>
<glyph name="uniFE2E" format="2">
  <unicode hex="FE2E"/>
  <outline>
    <contour>
      <point x="-36" y="615" type="curve"/>
      <point x="129" y="615" type="line"/>
      <point x="129" y="675" type="line"/>
      <point x="-72" y="675" type="line" smooth="yes"/>
      <point x="-110" y="675"/>
      <point x="-129" y="659"/>
      <point x="-129" y="622" type="curve" smooth="yes"/>
      <point x="-129" y="588"/>
      <point x="-112" y="570"/>
      <point x="-82" y="570" type="curve" smooth="yes"/>
      <point x="-54" y="570"/>
      <point x="-39" y="583"/>
    </contour>
  </outline>
</glyph>
<glyph name="uniFE2F" format="2">
  <unicode hex="FE2F"/>
  <outline>
    <contour>
      <point x="-129" y="615" type="line"/>
      <point x="72" y="615" type="line" smooth="yes"/>
      <point x="116" y="615"/>
      <point x="129" y="635"/>
      <point x="129" y="668" type="curve" smooth="yes"/>
      <point x="129" y="704"/>
      <point x="114" y="719"/>
      <point x="83" y="719" type="curve" smooth="yes"/>
      <point x="55" y="719"/>
      <point x="39" y="706"/>
      <point x="36" y="675" type="curve"/>
      <point x="-129" y="675" type="line"/>
    </contour>
  </outline>
</glyph>
<glyph name="one.lf" format="2">
  <advance width="343"/>
  <outline>
    <contour>
      <point x="170" y="0" type="line"/>
      <point x="254" y="0" type="line"/>
      <point x="254" y="714" type="line"/>
      <point x="181" y="714" type="line"/>
      <point x="24" y="557" type="line"/>
      <point x="72" y="506" type="line"/>
      <point x="131" y="565" type="line" smooth="yes"/>
      <point x="153" y="587"/>
      <point x="166" y="604"/>
      <point x="174" y="615" type="curve"/>
      <point x="172" y="570"/>
      <point x="170" y="524"/>
      <point x="170" y="481" type="curve" smooth="yes"/>
    </contour>
  </outline>
</glyph>
<glyph name="uni02E5_uni02E6" format="2">
  <advance width="372"/>
  <outline>
    <contour>
      <point x="231" y="0" type="line"/>
      <point x="296" y="0" type="line"/>
      <point x="296" y="688" type="line"/>
      <point x="231" y="688" type="line"/>
      <point x="231" y="543" type="line"/>
      <point x="76" y="688" type="line"/>
      <point x="33" y="639" type="line"/>
      <point x="231" y="452" type="line"/>
    </contour>
  </outline>
</glyph>
<glyph name="uni02E9_uni02E8_uni02E5" format="2">
  <advance width="526"/>
  <outline>
    <contour>
      <point x="76" y="0" type="line"/>
      <point x="279" y="198" type="line"/>
      <point x="386" y="497" type="line"/>
      <point x="386" y="0" type="line"/>
      <point x="450" y="0" type="line"/>
      <point x="450" y="688" type="line"/>
      <point x="386" y="688" type="line"/>
      <point x="222" y="234" type="line"/>
      <point x="33" y="50" type="line"/>
    </contour>
  </outline>
</glyph>
<glyph name="uni03D0.alt" format="2">
  <advance width="455"/>
  <anchor x="228" y="-10" name="bottom"/>
  <anchor x="228" y="765" name="top"/>
  <outline>
    <contour>
      <point x="231" y="765" type="curve" smooth="yes"/>
      <point x="126" y="765"/>
      <point x="63" y="691"/>
      <point x="63" y="560" type="curve" smooth="yes"/>
      <point x="63" y="210" type="line" smooth="yes"/>
      <point x="63" y="63"/>
      <point x="128" y="-10"/>
      <point x="236" y="-10" type="curve" smooth="yes"/>
      <point x="353" y="-10"/>
      <point x="416" y="72"/>
      <point x="416" y="201" type="curve" smooth="yes"/>
      <point x="416" y="319"/>
      <point x="373" y="382"/>
      <point x="287" y="396" type="curve"/>
      <point x="287" y="400" type="line"/>
      <point x="357" y="413"/>
      <point x="394" y="467"/>
      <point x="394" y="580" type="curve" smooth="yes"/>
      <point x="394" y="689"/>
      <point x="342" y="765"/>
    </contour>
    <contour>
      <point x="230" y="694" type="curve" smooth="yes"/>
      <point x="287" y="694"/>
      <point x="314" y="651"/>
      <point x="314" y="569" type="curve" smooth="yes"/>
      <point x="314" y="472"/>
      <point x="283" y="429"/>
      <point x="220" y="429" type="curve" smooth="yes"/>
      <point x="206" y="429" type="line"/>
      <point x="206" y="358" type="line"/>
      <point x="225" y="358" type="line" smooth="yes"/>
      <point x="298" y="358"/>
      <point x="333" y="307"/>
      <point x="333" y="210" type="curve" smooth="yes"/>
      <point x="333" y="110"/>
      <point x="301" y="63"/>
      <point x="237" y="63" type="curve" smooth="yes"/>
      <point x="180" y="63"/>
      <point x="144" y="110"/>
      <point x="144" y="218" type="curve" smooth="yes"/>
      <point x="144" y="557" type="line" smooth="yes"/>
      <point x="144" y="645"/>
      <point x="176" y="694"/>
    </contour>
  </outline>
</glyph>
<glyph name="uni1FCD02C9" format="2">
  <advance width="329"/>
  <anchor x="164" y="537" name="_top"/>
  <anchor x="166" y="861" name="top"/>
  <outline>
    <contour>
      <point x="232" y="854" type="curve"/>
      <point x="159" y="854" type="line"/>
      <point x="159" y="844" type="line"/>
      <point x="173" y="801"/>
      <point x="197" y="753"/>
      <point x="220" y="708" type="curve"/>
      <point x="260" y="708" type="line"/>
      <point x="260" y="720" type="line"/>
      <point x="249" y="758"/>
      <point x="239" y="806"/>
    </contour>
    <contour>
      <point x="266" y="662" type="line"/>
      <point x="62" y="662" type="line"/>
      <point x="62" y="607" type="line"/>
      <point x="266" y="607" type="line"/>
    </contour>
    <contour>
      <point x="106" y="861" type="curve" smooth="yes"/>
      <point x="86" y="861"/>
      <point x="72" y="845"/>
      <point x="72" y="819" type="curve" smooth="yes"/>
      <point x="72" y="793"/>
      <point x="83" y="779"/>
      <point x="105" y="779" type="curve"/>
      <point x="105" y="757"/>
      <point x="88" y="735"/>
      <point x="67" y="733" type="curve"/>
      <point x="67" y="702" type="line"/>
      <point x="118" y="705"/>
      <point x="149" y="749"/>
      <point x="149" y="798" type="curve" smooth="yes"/>
      <point x="149" y="839"/>
      <point x="131" y="861"/>
    </contour>
  </outline>
</glyph>
<glyph name="uni1FCD0306" format="2">
  <advance width="305"/>
  <anchor x="154" y="535" name="_top"/>
  <anchor x="156" y="881" name="top"/>
  <outline>
    <contour>
      <point x="155" y="585" type="curve" smooth="yes"/>
      <point x="224" y="585"/>
      <point x="259" y="626"/>
      <point x="266" y="702" type="curve"/>
      <point x="221" y="702" type="line"/>
      <point x="214" y="658"/>
      <point x="198" y="638"/>
      <point x="154" y="638" type="curve" smooth="yes"/>
      <point x="112" y="638"/>
      <point x="95" y="659"/>
      <point x="87" y="702" type="curve"/>
      <point x="41" y="702" type="line"/>
      <point x="47" y="626"/>
      <point x="80" y="585"/>
    </contour>
    <contour>
      <point x="56" y="725" type="line"/>
      <point x="109" y="727"/>
      <point x="138" y="769"/>
      <point x="138" y="818" type="curve" smooth="yes"/>
      <point x="138" y="860"/>
      <point x="120" y="881"/>
      <point x="96" y="881" type="curve" smooth="yes"/>
      <point x="75" y="881"/>
      <point x="61" y="864"/>
      <point x="61" y="840" type="curve" smooth="yes"/>
      <point x="61" y="813"/>
      <point x="73" y="800"/>
      <point x="94" y="799" type="curve"/>
      <point x="94" y="778"/>
      <point x="77" y="757"/>
      <point x="56" y="755" type="curve"/>
    </contour>
    <contour>
      <point x="208" y="729" type="curve"/>
      <point x="247" y="729" type="line"/>
      <point x="247" y="741" type="line"/>
      <point x="235" y="779"/>
      <point x="225" y="827"/>
      <point x="219" y="874" type="curve"/>
      <point x="146" y="874" type="line"/>
      <point x="146" y="864" type="line"/>
      <point x="159" y="822"/>
      <point x="183" y="773"/>
    </contour>
  </outline>
</glyph>
<glyph name="uni1FCE02C9" format="2">
  <advance width="328"/>
  <anchor x="163" y="537" name="_top"/>
  <anchor x="171" y="857" name="top"/>
  <outline>
    <contour>
      <point x="173" y="705" type="line"/>
      <point x="212" y="705" type="line"/>
      <point x="237" y="750"/>
      <point x="261" y="798"/>
      <point x="274" y="841" type="curve"/>
      <point x="274" y="851" type="line"/>
      <point x="200" y="851" type="line"/>
      <point x="194" y="804"/>
      <point x="183" y="755"/>
      <point x="173" y="717" type="curve"/>
    </contour>
    <contour>
      <point x="62" y="607" type="line"/>
      <point x="266" y="607" type="line"/>
      <point x="266" y="662" type="line"/>
      <point x="62" y="662" type="line"/>
    </contour>
    <contour>
      <point x="83" y="700" type="line"/>
      <point x="132" y="701"/>
      <point x="166" y="745"/>
      <point x="166" y="795" type="curve" smooth="yes"/>
      <point x="166" y="837"/>
      <point x="148" y="857"/>
      <point x="123" y="857" type="curve" smooth="yes"/>
      <point x="102" y="857"/>
      <point x="88" y="841"/>
      <point x="88" y="817" type="curve" smooth="yes"/>
      <point x="88" y="790"/>
      <point x="100" y="776"/>
      <point x="122" y="776" type="curve"/>
      <point x="122" y="754"/>
      <point x="104" y="732"/>
      <point x="83" y="730" type="curve"/>
    </contour>
  </outline>
</glyph>
<glyph name="uni1FCE0306" format="2">
  <advance width="306"/>
  <anchor x="154" y="535" name="_top"/>
  <anchor x="156" y="881" name="top"/>
  <outline>
    <contour>
      <point x="155" y="585" type="curve" smooth="yes"/>
      <point x="224" y="585"/>
      <point x="259" y="626"/>
      <point x="266" y="702" type="curve"/>
      <point x="221" y="702" type="line"/>
      <point x="214" y="658"/>
      <point x="198" y="638"/>
      <point x="154" y="638" type="curve" smooth="yes"/>
      <point x="112" y="638"/>
      <point x="94" y="656"/>
      <point x="87" y="702" type="curve"/>
      <point x="41" y="702" type="line"/>
      <point x="47" y="626"/>
      <point x="80" y="585"/>
    </contour>
    <contour>
      <point x="74" y="755" type="curve"/>
      <point x="74" y="725" type="line"/>
      <point x="127" y="727"/>
      <point x="157" y="769"/>
      <point x="157" y="818" type="curve" smooth="yes"/>
      <point x="157" y="860"/>
      <point x="138" y="881"/>
      <point x="113" y="881" type="curve" smooth="yes"/>
      <point x="94" y="881"/>
      <point x="79" y="864"/>
      <point x="79" y="840" type="curve" smooth="yes"/>
      <point x="79" y="813"/>
      <point x="91" y="800"/>
      <point x="113" y="799" type="curve"/>
      <point x="113" y="778"/>
      <point x="95" y="757"/>
    </contour>
    <contour>
      <point x="164" y="741" type="curve"/>
      <point x="164" y="729" type="line"/>
      <point x="204" y="729" type="line"/>
      <point x="227" y="773"/>
      <point x="251" y="822"/>
      <point x="265" y="864" type="curve"/>
      <point x="265" y="874" type="line"/>
      <point x="192" y="874" type="line"/>
      <point x="185" y="827"/>
      <point x="174" y="779"/>
    </contour>
  </outline>
</glyph>
<glyph name="uni1FDD02C9" format="2">
  <advance width="329"/>
  <anchor x="164" y="537" name="_top"/>
  <anchor x="166" y="861" name="top"/>
  <outline>
    <contour>
      <point x="231" y="854" type="curve"/>
      <point x="157" y="854" type="line"/>
      <point x="157" y="844" type="line"/>
      <point x="171" y="801"/>
      <point x="194" y="753"/>
      <point x="218" y="708" type="curve"/>
      <point x="258" y="708" type="line"/>
      <point x="258" y="720" type="line"/>
      <point x="249" y="758"/>
      <point x="238" y="806"/>
    </contour>
    <contour>
      <point x="266" y="662" type="line"/>
      <point x="62" y="662" type="line"/>
      <point x="62" y="607" type="line"/>
      <point x="266" y="607" type="line"/>
    </contour>
    <contour>
      <point x="104" y="861" type="curve" smooth="yes"/>
      <point x="81" y="861"/>
      <point x="63" y="839"/>
      <point x="63" y="800" type="curve" smooth="yes"/>
      <point x="63" y="748"/>
      <point x="96" y="706"/>
      <point x="145" y="704" type="curve"/>
      <point x="145" y="734" type="line"/>
      <point x="125" y="737"/>
      <point x="107" y="757"/>
      <point x="107" y="779" type="curve"/>
      <point x="126" y="779"/>
      <point x="141" y="793"/>
      <point x="141" y="819" type="curve" smooth="yes"/>
      <point x="141" y="842"/>
      <point x="126" y="861"/>
    </contour>
  </outline>
</glyph>
<glyph name="uni1FDD0306" format="2">
  <advance width="305"/>
  <anchor x="154" y="535" name="_top"/>
  <anchor x="156" y="881" name="top"/>
  <outline>
    <contour>
      <point x="155" y="585" type="curve" smooth="yes"/>
      <point x="224" y="585"/>
      <point x="259" y="626"/>
      <point x="266" y="702" type="curve"/>
      <point x="222" y="702" type="line"/>
      <point x="215" y="658"/>
      <point x="198" y="638"/>
      <point x="154" y="638" type="curve" smooth="yes"/>
      <point x="112" y="638"/>
      <point x="95" y="659"/>
      <point x="87" y="702" type="curve"/>
      <point x="41" y="702" type="line"/>
      <point x="47" y="626"/>
      <point x="80" y="585"/>
    </contour>
    <contour>
      <point x="134" y="725" type="curve"/>
      <point x="134" y="755" type="line"/>
      <point x="113" y="756"/>
      <point x="96" y="778"/>
      <point x="96" y="799" type="curve"/>
      <point x="116" y="800"/>
      <point x="131" y="813"/>
      <point x="131" y="840" type="curve" smooth="yes"/>
      <point x="131" y="864"/>
      <point x="117" y="881"/>
      <point x="96" y="881" type="curve" smooth="yes"/>
      <point x="71" y="881"/>
      <point x="53" y="860"/>
      <point x="53" y="818" type="curve" smooth="yes"/>
      <point x="53" y="769"/>
      <point x="85" y="726"/>
    </contour>
    <contour>
      <point x="209" y="729" type="curve"/>
      <point x="249" y="729" type="line"/>
      <point x="249" y="741" type="line"/>
      <point x="239" y="779"/>
      <point x="227" y="827"/>
      <point x="221" y="874" type="curve"/>
      <point x="147" y="874" type="line"/>
      <point x="147" y="864" type="line"/>
      <point x="162" y="822"/>
      <point x="185" y="774"/>
    </contour>
  </outline>
</glyph>
<glyph name="uni1FDE02C9" format="2">
  <advance width="322"/>
  <anchor x="164" y="537" name="_top"/>
  <anchor x="170" y="861" name="top"/>
  <outline>
    <contour>
      <point x="172" y="708" type="line"/>
      <point x="212" y="708" type="line"/>
      <point x="236" y="753"/>
      <point x="259" y="801"/>
      <point x="273" y="844" type="curve"/>
      <point x="273" y="854" type="line"/>
      <point x="199" y="854" type="line"/>
      <point x="193" y="806"/>
      <point x="181" y="758"/>
      <point x="172" y="720" type="curve"/>
    </contour>
    <contour>
      <point x="62" y="607" type="line"/>
      <point x="266" y="607" type="line"/>
      <point x="266" y="662" type="line"/>
      <point x="62" y="662" type="line"/>
    </contour>
    <contour>
      <point x="154" y="704" type="curve"/>
      <point x="154" y="734" type="line"/>
      <point x="132" y="737"/>
      <point x="114" y="757"/>
      <point x="114" y="779" type="curve"/>
      <point x="137" y="779"/>
      <point x="148" y="793"/>
      <point x="148" y="819" type="curve" smooth="yes"/>
      <point x="148" y="845"/>
      <point x="134" y="861"/>
      <point x="114" y="861" type="curve" smooth="yes"/>
      <point x="89" y="861"/>
      <point x="71" y="839"/>
      <point x="71" y="798" type="curve" smooth="yes"/>
      <point x="71" y="748"/>
      <point x="104" y="706"/>
    </contour>
  </outline>
</glyph>
<glyph name="uni1FDE0306" format="2">
  <advance width="306"/>
  <anchor x="154" y="535" name="_top"/>
  <anchor x="156" y="881" name="top"/>
  <outline>
    <contour>
      <point x="155" y="585" type="curve" smooth="yes"/>
      <point x="224" y="585"/>
      <point x="259" y="626"/>
      <point x="266" y="702" type="curve"/>
      <point x="219" y="702" type="line"/>
      <point x="212" y="658"/>
      <point x="198" y="638"/>
      <point x="154" y="638" type="curve" smooth="yes"/>
      <point x="112" y="638"/>
      <point x="94" y="659"/>
      <point x="89" y="702" type="curve"/>
      <point x="41" y="702" type="line"/>
      <point x="47" y="626"/>
      <point x="80" y="585"/>
    </contour>
    <contour>
      <point x="145" y="725" type="curve"/>
      <point x="145" y="755" type="line"/>
      <point x="124" y="756"/>
      <point x="107" y="778"/>
      <point x="107" y="799" type="curve"/>
      <point x="127" y="800"/>
      <point x="142" y="813"/>
      <point x="142" y="840" type="curve" smooth="yes"/>
      <point x="142" y="864"/>
      <point x="127" y="881"/>
      <point x="107" y="881" type="curve" smooth="yes"/>
      <point x="82" y="881"/>
      <point x="64" y="860"/>
      <point x="64" y="818" type="curve" smooth="yes"/>
      <point x="64" y="769"/>
      <point x="96" y="725"/>
    </contour>
    <contour>
      <point x="164" y="729" type="line"/>
      <point x="204" y="729" type="line"/>
      <point x="228" y="774"/>
      <point x="251" y="822"/>
      <point x="265" y="864" type="curve"/>
      <point x="265" y="874" type="line"/>
      <point x="192" y="874" type="line"/>
      <point x="186" y="827"/>
      <point x="174" y="779"/>
      <point x="164" y="741" type="curve"/>
    </contour>
  </outline>
</glyph>
